# This file uses centimeters as units for non-parametric coordinates.

mtllib obelisk.mtl
g default
v -2.000000 -0.500000 2.000000
v 2.000000 -0.500000 2.000000
v -2.000000 0.500000 2.000000
v 2.000000 0.500000 2.000000
v -2.000000 0.500000 -2.000000
v 2.000000 0.500000 -2.000000
v -2.000000 -0.500000 -2.000000
v 2.000000 -0.500000 -2.000000
v -1.428571 0.500000 1.428571
v -1.428571 0.500000 -1.428571
v 1.428571 0.500000 1.428571
v 1.428571 0.500000 -1.428571
v 1.428571 0.840902 -1.428571
v -1.428571 0.840902 -1.428571
v -1.428571 0.840902 1.428571
v 1.428571 0.840902 1.428571
v 1.053909 2.769300 -1.053909
v 1.053909 2.769300 1.053909
v -1.053909 2.769300 -1.053909
v -1.053909 2.769300 1.053909
v 0.864368 3.082880 -0.864368
v 0.864368 3.082880 0.864368
v -0.864368 3.082880 -0.864368
v -0.864368 3.082880 0.864368
v 0.624486 10.895393 -0.624486
v 0.624486 10.895393 0.624486
v -0.624486 10.895393 -0.624486
v -0.624486 10.895393 0.624486
v 0.295519 11.852552 -0.295519
v 0.295519 11.852552 0.295519
v -0.295519 11.852552 -0.295519
v -0.295519 11.852552 0.295519
v 0.564350 11.245232 -0.564350
v 0.564350 11.245232 0.564350
v -0.564350 11.245232 0.564350
v -0.564350 11.245232 -0.564350
v 0.000000 12.315505 0.000000
v 0.624486 10.895393 0.485711
v 0.864368 3.082880 0.672286
v 1.111111 0.840902 0.864198
v -1.111111 0.840902 0.864198
v -0.864368 3.082880 0.672286
v -0.624486 10.895393 0.485711
v 0.624486 10.895393 -0.485711
v 0.864368 3.082880 -0.672286
v 1.111111 0.840902 -0.864198
v -1.111111 0.840902 -0.864198
v -0.864368 3.082880 -0.672286
v -0.624486 10.895393 -0.485711
v 0.485711 10.895393 -0.624486
v 0.672286 3.082880 -0.864368
v 0.864198 0.840902 -1.111111
v 0.864198 0.840902 1.111111
v 0.672286 3.082880 0.864368
v 0.485711 10.895393 0.624486
v -0.485711 10.895393 -0.624486
v -0.672286 3.082880 -0.864368
v -0.864198 0.840902 -1.111111
v -0.864198 0.840902 1.111111
v -0.672286 3.082880 0.864368
v -0.485711 10.895393 0.624486
v -0.864197 0.840902 -1.349206
v 0.864198 0.840902 -1.349206
v 1.349206 0.840902 -1.349206
v 1.349206 0.840902 -0.864197
v 1.349206 0.840902 0.864198
v -1.349206 0.840902 -1.349206
v -1.349206 0.840902 -0.864198
v -1.349206 0.840902 0.864198
v -1.349206 0.840902 1.349206
v -0.864198 0.840902 1.349206
v 0.864198 0.840902 1.349206
v 1.349206 0.840902 1.349206
v -1.096124 1.258973 1.096124
v -1.255173 1.071231 1.260207
v -0.961713 1.071231 1.096124
v -0.961713 1.071231 1.260207
v -1.096124 1.071231 0.956493
v -1.255173 1.071231 0.956493
v -1.096124 1.258973 -1.096124
v -1.096124 1.071231 -0.956493
v -1.255173 1.071231 -0.956493
v -1.255173 1.071231 -1.260207
v -0.961713 1.071231 -1.260207
v -0.961713 1.071231 -1.096124
v 0.961713 1.071231 1.096124
v 1.096124 1.258973 1.096124
v 0.961713 1.071231 1.260207
v 1.255173 1.071231 0.956493
v 1.096124 1.071231 0.956493
v 1.255173 1.071231 1.260207
v 1.096124 1.258973 -1.096124
v 0.961713 1.071231 -1.260207
v 0.961713 1.071231 -1.096124
v 1.255173 1.071231 -1.260207
v 1.255173 1.071231 -0.956493
v 1.096124 1.071231 -0.956493
v 0.071578 12.235210 0.071649
v -0.072029 12.234500 -0.071959
v 0.072029 12.234500 -0.071959
v -0.071578 12.235210 0.071649
v 0.743304 3.079163 -0.672286
v 0.743304 3.079163 0.672286
v 0.494566 10.891676 -0.494566
v 0.494566 10.891676 0.494566
v -0.494566 10.891676 -0.494566
v -0.494566 10.891676 0.494566
v -0.743304 3.079163 -0.672286
v -0.743304 3.079163 0.672286
v -0.672286 3.079163 -0.743304
v 0.672286 3.079163 -0.743304
v -0.672286 3.079163 0.743304
v 0.672286 3.079163 0.743304
vt 0.125000 0.250000
vt 0.125000 0.000000
vt 0.375000 0.000000
vt 0.375000 0.250000
vt 0.875000 0.000000
vt 0.875000 0.250000
vt 0.625000 0.250000
vt 0.625000 0.000000
vt 0.625000 0.500000
vt 0.589286 0.464286
vt 0.589286 0.285714
vt 0.410714 0.285714
vt 0.410714 0.464286
vt 0.375000 0.500000
vt 0.410714 0.285714
vt 0.410714 0.464286
vt 0.589286 0.464286
vt 0.589286 0.285714
vt 0.554012 0.459325
vt 0.584325 0.459325
vt 0.375000 0.750000
vt 0.625000 0.750000
vt 0.445988 0.305556
vt 0.430556 0.305556
vt 0.445988 0.290675
vt 0.569444 0.305556
vt 0.569444 0.320988
vt 0.569444 0.305556
vt 0.569444 0.444444
vt 0.554012 0.444444
vt 0.569444 0.444444
vt 0.430556 0.429012
vt 0.430556 0.444444
vt 0.430556 0.444444
vt 0.445988 0.305556
vt 0.430556 0.305556
vt 0.430556 0.305556
vt 0.569444 0.429012
vt 0.569444 0.444444
vt 0.569444 0.429012
vt 0.445988 0.444444
vt 0.430556 0.444444
vt 0.445988 0.444444
vt 0.430556 0.429012
vt 0.445988 0.305556
vt 0.430556 0.305556
vt 0.564300 0.439300
vt 0.435700 0.439300
vt 0.435700 0.310700
vt 0.569444 0.305556
vt 0.569444 0.320988
vt 0.564300 0.310700
vt 0.430556 0.320988
vt 0.415675 0.320988
vt 0.430556 0.320988
vt 0.430556 0.320988
vt 0.564300 0.439300
vt 0.564300 0.310700
vt 0.569444 0.320988
vt 0.569444 0.429012
vt 0.569444 0.429012
vt 0.569444 0.320988
vt 0.569444 0.305556
vt 0.569444 0.444444
vt 0.430556 0.320988
vt 0.430556 0.429012
vt 0.415675 0.429012
vt 0.415675 0.320988
vt 0.430556 0.429012
vt 0.430556 0.320988
vt 0.430556 0.320988
vt 0.430556 0.429012
vt 0.430556 0.429012
vt 0.430556 0.320988
vt 0.435700 0.310700
vt 0.435700 0.439300
vt 0.554012 0.444444
vt 0.569444 0.305556
vt 0.554012 0.305556
vt 0.554012 0.290675
vt 0.554012 0.305556
vt 0.554012 0.305556
vt 0.554012 0.444444
vt 0.445988 0.444444
vt 0.445988 0.444444
vt 0.554012 0.444444
vt 0.554012 0.444444
vt 0.554012 0.444444
vt 0.445988 0.444444
vt 0.445988 0.444444
vt 0.554012 0.305556
vt 0.445988 0.305556
vt 0.445988 0.290675
vt 0.554012 0.290675
vt 0.430556 0.305556
vt 0.554012 0.305556
vt 0.445988 0.305556
vt 0.445988 0.305556
vt 0.554012 0.305556
vt 0.430556 0.444444
vt 0.445988 0.459325
vt 0.415675 0.459325
vt 0.445988 0.459325
vt 0.569444 0.444444
vt 0.554012 0.459325
vt 0.554012 0.444444
vt 0.584325 0.459325
vt 0.584325 0.429012
vt 0.569444 0.429012
vt 0.584325 0.429012
vt 0.569444 0.429012
vt 0.569444 0.320988
vt 0.584325 0.320988
vt 0.584325 0.320988
vt 0.569444 0.320988
vt 0.415675 0.459325
vt 0.415675 0.290675
vt 0.415675 0.290675
vt 0.415675 0.444444
vt 0.415675 0.429012
vt 0.415675 0.429012
vt 0.415675 0.444444
vt 0.415675 0.429012
vt 0.415675 0.429012
vt 0.415675 0.320988
vt 0.415675 0.305556
vt 0.415675 0.305556
vt 0.415675 0.320988
vt 0.415675 0.320988
vt 0.554012 0.305556
vt 0.554012 0.305556
vt 0.415675 0.320988
vt 0.554012 0.305556
vt 0.554012 0.290675
vt 0.554012 0.290675
vt 0.554012 0.305556
vt 0.415675 0.459325
vt 0.415675 0.444444
vt 0.415675 0.444444
vt 0.415675 0.459325
vt 0.430556 0.444444
vt 0.445988 0.444444
vt 0.445988 0.444444
vt 0.430556 0.444444
vt 0.445988 0.444444
vt 0.569444 0.459325
vt 0.569444 0.459325
vt 0.554012 0.459325
vt 0.554012 0.444444
vt 0.554012 0.444444
vt 0.554012 0.459325
vt 0.554012 0.459325
vt 0.584325 0.444444
vt 0.584325 0.444444
vt 0.554012 0.459325
vt 0.569444 0.444444
vt 0.569444 0.429012
vt 0.569444 0.429012
vt 0.569444 0.444444
vt 0.584325 0.444444
vt 0.584325 0.305556
vt 0.584325 0.305556
vt 0.584325 0.444444
vt 0.569444 0.320988
vt 0.569444 0.320988
vt 0.569444 0.320988
vt 0.569444 0.320988
vt 0.584325 0.290675
vt 0.584325 0.305556
vt 0.584325 0.305556
vt 0.584325 0.290675
vt 0.430556 0.429012
vt 0.415675 0.429012
vt 0.445988 0.444444
vt 0.584325 0.290675
vt 0.511167 0.363834
vt 0.488834 0.363834
vt 0.500000 0.375000
vt 0.511237 0.386238
vt 0.488763 0.386238
vt 0.584325 0.290675
vt 0.445988 0.305556
vt 0.554012 0.305556
vt 0.569444 0.320988
vt 0.569444 0.429012
vt 0.430556 0.444444
vn -1.000000 0.000000 0.000000
vn -1.000000 0.000000 0.000000
vn -1.000000 0.000000 0.000000
vn -1.000000 0.000000 0.000000
vn 1.000000 0.000000 0.000000
vn 1.000000 0.000000 0.000000
vn 1.000000 0.000000 0.000000
vn 1.000000 0.000000 0.000000
vn 0.000000 1.000000 0.000000
vn 0.000000 1.000000 0.000000
vn 0.000000 1.000000 0.000000
vn 0.000000 1.000000 0.000000
vn 0.000000 1.000000 0.000000
vn 0.000000 1.000000 0.000000
vn 0.000000 1.000000 0.000000
vn 0.000000 1.000000 0.000000
vn -1.000000 0.000000 0.000000
vn -1.000000 0.000000 0.000000
vn -1.000000 0.000000 0.000000
vn -1.000000 0.000000 0.000000
vn 1.000000 0.000000 0.000000
vn 1.000000 0.000000 0.000000
vn 1.000000 0.000000 0.000000
vn 1.000000 0.000000 0.000000
vn 0.000000 1.000000 0.000000
vn 0.000000 1.000000 0.000001
vn 0.000000 1.000000 0.000000
vn 0.000000 0.000000 1.000000
vn 0.000000 0.000000 1.000000
vn 0.000000 0.000000 1.000000
vn 0.000000 0.000000 1.000000
vn 0.000000 0.000000 1.000000
vn 0.000000 0.000000 1.000000
vn 0.000000 0.000000 1.000000
vn 0.000000 0.000000 1.000000
vn 0.000000 0.000000 -1.000000
vn 0.000000 0.000000 -1.000000
vn 0.000000 0.000000 -1.000000
vn 0.000000 0.000000 -1.000000
vn 0.000000 0.000000 -1.000000
vn 0.000000 0.000000 -1.000000
vn 0.000000 0.000000 -1.000000
vn 0.000000 0.000000 -1.000000
vn 0.813100 0.582124 0.000000
vn -0.308595 0.906808 0.287173
vn 0.319720 0.742899 0.588116
vn 0.855810 0.517290 0.000000
vn 0.999146 0.041310 0.000000
vn 0.998987 0.044996 0.000000
vn 0.000000 0.517290 -0.855810
vn 0.000000 0.041310 -0.999146
vn 0.000000 0.044996 -0.998987
vn -0.999146 0.041310 0.000000
vn -0.998987 0.044996 0.000000
vn -0.855810 0.517290 0.000000
vn 0.000000 0.041310 0.999146
vn 0.000000 0.044996 0.998987
vn 0.000000 0.517289 0.855811
vn 0.999146 0.041310 0.000000
vn 0.998987 0.044996 0.000000
vn 0.999448 0.033208 0.000000
vn 0.997931 0.064286 0.000000
vn 0.000000 0.041310 -0.999146
vn 0.000000 0.044996 -0.998987
vn 0.000000 0.033208 -0.999448
vn 0.000000 0.064286 -0.997931
vn -0.997931 0.064286 0.000000
vn -0.999448 0.033208 0.000000
vn 0.000000 0.064286 0.997931
vn 0.000000 0.033208 0.999448
vn 0.950139 0.311827 0.000000
vn 0.000000 0.311826 -0.950139
vn -0.950139 0.311827 0.000000
vn 0.000000 0.311826 0.950139
vn 0.999448 0.033208 0.000000
vn 0.997931 0.064286 0.000000
vn 0.950139 0.311827 0.000000
vn 0.000000 0.596778 -0.802406
vn -0.600179 0.737949 -0.308572
vn -0.997931 0.064286 0.000000
vn -0.999146 0.041310 0.000000
vn -0.998987 0.044996 0.000000
vn -0.999448 0.033208 0.000000
vn -0.950139 0.311827 0.000000
vn 0.589229 0.552867 -0.589193
vn 0.589201 0.552848 0.589238
vn 0.999493 0.031822 0.000000
vn 0.999493 0.031822 0.000000
vn 0.999494 0.031822 0.000000
vn 0.999494 0.031822 0.000000
vn 0.999610 0.027940 0.000000
vn 0.999610 0.027940 0.000000
vn 0.999610 0.027940 0.000000
vn 0.999610 0.027940 0.000000
vn 0.000000 1.000000 0.000000
vn 0.000000 1.000000 0.000000
vn 0.000000 1.000000 0.000000
vn 0.000000 1.000000 0.000000
vn -0.997890 0.064932 0.000000
vn -0.997890 0.064932 0.000000
vn -0.997890 0.064932 0.000000
vn -0.997890 0.064932 0.000000
vn -0.999494 0.031822 0.000000
vn -0.999494 0.031822 0.000000
vn -0.999493 0.031822 0.000000
vn -0.999493 0.031822 0.000000
vn -0.589201 0.552848 0.589238
vn -0.589229 0.552867 -0.589193
vn 0.000000 0.033208 -0.999448
vn 0.000000 0.064286 -0.997931
vn 0.000000 0.311826 -0.950139
vn 0.308595 0.906808 0.287172
vn -0.813100 0.582124 0.000000
vn -0.319720 0.742899 0.588116
vn 0.000000 0.064286 0.997931
vn 0.000000 0.041310 0.999146
vn 0.000000 0.044996 0.998987
vn 0.000000 0.033208 0.999448
vn 0.000000 0.311826 0.950139
vn 0.000000 0.031822 -0.999493
vn 0.000000 0.031822 -0.999493
vn 0.000000 0.031822 -0.999494
vn 0.000000 0.031822 -0.999494
vn 0.000000 0.064932 -0.997890
vn 0.000000 0.064932 -0.997890
vn 0.000000 0.064932 -0.997890
vn 0.000000 0.064932 -0.997890
vn 0.000000 1.000000 0.000000
vn 0.000000 1.000000 0.000000
vn 0.000000 1.000000 0.000000
vn 0.000000 1.000000 0.000000
vn 0.000000 0.027940 0.999610
vn 0.000000 0.027940 0.999610
vn 0.000000 0.096111 0.995371
vn 0.000000 0.096111 0.995371
vn 0.000000 0.031822 0.999494
vn 0.000000 0.031822 0.999494
vn 0.000000 0.031822 0.999493
vn 0.000000 0.031822 0.999493
vn -0.308595 0.906808 -0.287173
vn 0.319720 0.742899 -0.588116
vn -0.455579 0.772530 -0.442319
vn 0.000000 1.000000 0.000000
vn 0.000000 1.000000 -0.000000
vn 0.000000 1.000000 -0.000000
vn 0.000000 1.000000 0.000000
vn 0.308595 0.906808 -0.287172
vn -0.319720 0.742899 -0.588115
vn -0.813101 0.582123 0.000000
vn 0.455579 0.772530 -0.442318
vn 0.600179 0.737949 0.308572
vn 0.000000 0.596779 0.802406
vn 0.000000 1.000000 0.000000
vn 0.000000 1.000000 0.000000
vn 0.000000 1.000000 0.000000
vn 0.000000 1.000000 0.000000
vn 0.600179 0.737949 -0.308573
vn 0.000000 0.596778 -0.802406
vn 0.000000 1.000000 0.000000
vn 0.000000 1.000000 0.000000
vn 0.000000 1.000000 0.000000
vn 0.000000 0.360430 0.932786
vn 0.000000 0.360430 0.932786
vn 0.000000 0.360430 0.932786
vn 0.000000 0.360430 0.932786
vn 0.920868 0.389875 0.000000
vn 0.920868 0.389875 0.000000
vn 0.920868 0.389875 0.000000
vn 0.920868 0.389875 0.000000
vn 0.000000 0.371961 -0.928248
vn 0.000000 0.371961 -0.928248
vn 0.000000 0.371961 -0.928248
vn 0.000000 0.371961 -0.928248
vn -0.925817 0.377971 0.000000
vn -0.925817 0.377972 0.000000
vn -0.925817 0.377972 0.000000
vn -0.925817 0.377971 0.000000
vn 0.000000 0.371961 0.928248
vn 0.000000 0.371961 0.928248
vn 0.000000 0.371961 0.928248
vn 0.000000 0.371961 0.928248
vn -0.925817 0.377971 0.000000
vn -0.925817 0.377971 0.000000
vn -0.925817 0.377971 0.000000
vn -0.925817 0.377971 0.000000
vn 0.000000 0.360430 -0.932786
vn 0.000000 0.360430 -0.932786
vn 0.000000 0.360430 -0.932786
vn 0.000000 0.360430 -0.932786
vn 0.920868 0.389875 -0.000000
vn 0.920868 0.389875 -0.000000
vn 0.920868 0.389875 -0.000000
vn 0.920868 0.389875 -0.000000
vn -0.920868 0.389875 0.000000
vn -0.920868 0.389875 0.000000
vn -0.920868 0.389875 0.000000
vn -0.920868 0.389875 0.000000
vn 0.000000 0.360430 0.932786
vn 0.000000 0.360430 0.932786
vn 0.000000 0.360430 0.932786
vn 0.000000 0.360430 0.932786
vn 0.000000 0.371961 -0.928248
vn 0.000000 0.371961 -0.928248
vn 0.000000 0.371961 -0.928248
vn 0.000000 0.371961 -0.928248
vn 0.925817 0.377971 -0.000000
vn 0.925817 0.377971 -0.000000
vn 0.925817 0.377971 -0.000000
vn 0.925817 0.377971 -0.000000
vn -0.920868 0.389875 0.000000
vn -0.920868 0.389875 0.000000
vn -0.920868 0.389875 0.000000
vn -0.920868 0.389875 0.000000
vn 0.000000 0.360430 -0.932786
vn 0.000000 0.360430 -0.932786
vn 0.000000 0.360430 -0.932786
vn 0.000000 0.360430 -0.932786
vn 0.925817 0.377971 0.000000
vn 0.925817 0.377971 0.000000
vn 0.925817 0.377972 0.000000
vn 0.925817 0.377971 0.000000
vn 0.000000 0.371961 0.928248
vn 0.000000 0.371961 0.928248
vn 0.000000 0.371961 0.928248
vn 0.000000 0.371961 0.928248
vn 0.000000 0.596778 0.802406
vn -0.600179 0.737949 0.308572
vn 0.813100 0.582124 -0.000001
vn -0.455579 0.772530 0.442319
vn 0.455579 0.772530 0.442318
vn 0.538113 0.643758 0.544069
vn -0.538113 0.643758 0.544069
vn 0.000000 0.999991 -0.004320
vn 0.544075 0.643698 -0.538179
vn -0.544075 0.643698 -0.538179
vn -0.030692 0.999529 0.000000
vn -0.030692 0.999529 0.000000
vn -0.030692 0.999529 0.000000
vn -0.030692 0.999529 0.000000
vn -0.034529 -0.024374 0.999106
vn -0.034529 -0.024374 0.999106
vn -0.034529 -0.024374 0.999106
vn -0.034529 -0.024374 0.999106
vn 0.028602 -0.999591 0.000000
vn 0.028602 -0.999591 0.000000
vn 0.028602 -0.999591 0.000000
vn 0.028602 -0.999591 0.000000
vn -0.034529 -0.024374 -0.999106
vn -0.034529 -0.024374 -0.999106
vn -0.034529 -0.024374 -0.999106
vn -0.034529 -0.024374 -0.999106
vn -0.028602 -0.999591 0.000000
vn -0.028602 -0.999591 0.000000
vn -0.028602 -0.999591 0.000000
vn -0.028602 -0.999591 0.000000
vn 0.034529 -0.024374 0.999106
vn 0.034529 -0.024374 0.999106
vn 0.034529 -0.024374 0.999106
vn 0.034529 -0.024374 0.999106
vn 0.030692 0.999529 0.000000
vn 0.030692 0.999529 0.000000
vn 0.030692 0.999529 0.000000
vn 0.030692 0.999529 0.000000
vn 0.034529 -0.024374 -0.999106
vn 0.034529 -0.024374 -0.999106
vn 0.034529 -0.024374 -0.999106
vn 0.034529 -0.024374 -0.999106
vn 0.000000 0.999529 0.030694
vn 0.000000 0.999529 0.030694
vn 0.000000 0.999529 0.030694
vn 0.000000 0.999529 0.030694
vn 0.999106 -0.024374 0.034529
vn 0.999106 -0.024374 0.034529
vn 0.999106 -0.024374 0.034529
vn 0.999106 -0.024374 0.034529
vn 0.000000 -0.999591 -0.028598
vn 0.000000 -0.999591 -0.028598
vn 0.000000 -0.999591 -0.028598
vn 0.000000 -0.999591 -0.028598
vn -0.999106 -0.024374 0.034529
vn -0.999106 -0.024374 0.034529
vn -0.999106 -0.024374 0.034529
vn -0.999106 -0.024374 0.034529
vn 0.000000 -0.999591 0.028600
vn 0.000000 -0.999591 0.028600
vn 0.000000 -0.999591 0.028600
vn 0.000000 -0.999591 0.028600
vn 0.999106 -0.024374 -0.034529
vn 0.999106 -0.024374 -0.034529
vn 0.999106 -0.024374 -0.034529
vn 0.999106 -0.024374 -0.034529
vn 0.000000 0.999529 -0.030694
vn 0.000000 0.999529 -0.030694
vn 0.000000 0.999529 -0.030694
vn 0.000000 0.999529 -0.030694
vn -0.999106 -0.024374 -0.034529
vn -0.999106 -0.024374 -0.034529
vn -0.999106 -0.024374 -0.034529
vn -0.999106 -0.024374 -0.034529
vn 0.000000 1.000000 -0.000001
vn 0.000000 1.000000 0.000000
vn 0.000000 1.000000 -0.000001
vn 0.000000 1.000000 0.000000
vn 0.000000 1.000000 0.000000
vn 0.000000 1.000000 0.000000
vn 0.000000 0.000000 1.000000
vn 0.000000 0.000000 1.000000
vn 0.000000 0.000000 1.000000
vn 0.000000 0.000000 1.000000
vn 1.000000 -0.000000 0.000000
vn 1.000000 -0.000000 0.000000
vn 1.000000 -0.000000 0.000000
vn 1.000000 -0.000000 0.000000
vn 0.000000 0.027940 -0.999610
vn 0.000000 0.027940 -0.999610
vn 0.000000 0.096111 -0.995371
vn 0.000000 0.096111 -0.995371
vn -0.999610 0.027940 0.000000
vn -0.999610 0.027940 0.000000
vn -0.995371 0.096111 0.000000
vn -0.995371 0.096111 0.000000
vn 0.000000 0.064932 0.997890
vn 0.000000 0.064932 0.997890
vn 0.000000 0.064932 0.997890
vn 0.000000 0.064932 0.997890
vn 0.997890 0.064932 0.000000
vn 0.997890 0.064932 0.000000
vn 0.997890 0.064932 0.000000
vn 0.997890 0.064932 0.000000
vn 0.000000 0.000000 -1.000000
vn 0.000000 0.000000 -1.000000
vn 0.000000 0.000000 -1.000000
vn 0.000000 0.000000 -1.000000
vn -1.000000 -0.000000 0.000000
vn -1.000000 -0.000000 0.000000
vn -1.000000 -0.000000 0.000000
vn -1.000000 -0.000000 0.000000
vn 0.000000 0.517289 -0.855811
vn -0.855810 0.517290 0.000000
vn -0.855810 0.517290 0.000000
vn -0.855810 0.517290 0.000000
vn 0.000000 0.517290 0.855810
vn 0.000000 0.517290 0.855810
vn 0.000000 0.517290 0.855810
vn 0.855810 0.517290 0.000000
vn 0.855810 0.517290 0.000000
vn 0.855810 0.517290 0.000000
vn 0.855810 0.517290 0.000000
vn 0.855810 0.517290 0.000000
vn 0.000000 0.517290 -0.855810
vn 0.000000 0.517290 -0.855810
vn 0.000000 1.000000 0.000000
vn 0.000000 1.000000 0.000000
vn 0.000000 1.000000 0.000000
vn 0.000000 1.000000 0.000000
vn 0.000000 1.000000 0.000000
vn 0.000000 1.000000 -0.000002
vn 0.000000 1.000000 0.000000
vn 0.000000 1.000000 0.000000
vn 0.000000 1.000000 0.000000
vn 0.000000 1.000000 0.000001
vn 0.000000 1.000000 0.000001
vn 0.000000 1.000000 0.000000
s off
g polySurface1 pCube1
usemtl initialShadingGroup
f 5/1/1 7/2/2 1/3/3 3/4/4
f 8/5/5 6/6/6 4/7/7 2/8/8
s 1
f 6/9/9 12/10/10 11/11/11 4/7/12
f 9/12/13 10/13/14 5/14/15 3/4/16
s off
f 15/15/17 14/16/18 10/13/19 9/12/20
f 11/11/21 12/10/22 13/17/23 16/18/24
s 2
f 13/17/25 63/19/26 64/20/27
s off
f 15/15/28 9/12/29 11/11/30 16/18/31
f 3/4/32 1/3/33 2/8/34 4/7/35
f 7/21/36 5/14/37 6/9/38 8/22/39
s 1
f 5/14/15 10/13/14 12/10/10 6/9/9
s off
f 12/10/40 10/13/41 14/16/42 13/17/43
s 3
f 76/23/44 74/24/45 77/25/46
s 4
f 18/26/47 39/27/48 22/28/49
f 17/29/50 51/30/51 21/31/52
f 48/32/53 23/33/54 19/34/55
f 60/35/56 24/36/57 20/37/58
f 45/38/59 21/31/60 25/39/61 44/40/62
f 57/41/63 23/33/64 27/42/65 56/43/66
f 23/33/54 48/32/53 49/44/67 27/42/68
f 24/36/57 60/35/56 61/45/69 28/46/70
f 44/40/62 25/39/61 33/47/71
f 56/43/66 27/42/65 36/48/72
f 27/42/68 49/44/67 36/48/73
f 28/46/70 61/45/69 35/49/74
f 26/50/75 38/51/76 34/52/77
f 22/28/49 39/27/48 38/51/76 26/50/75
s 3
f 74/24/45 78/53/78 79/54/79
s 4
f 43/55/80 42/56/81 24/36/82 28/46/83
f 35/49/84 43/55/80 28/46/83
f 34/52/77 33/47/71 29/57/85 30/58/86
f 38/51/76 44/40/62 33/47/71 34/52/77
s off
f 103/59/87 102/60/88 104/61/89 105/62/90
f 87/63/91 92/64/92 17/29/93 18/26/94
s 12
f 41/65/95 47/66/96 68/67/97 69/68/98
s off
f 81/69/99 47/66/100 41/65/101 78/70/102
f 107/71/103 106/72/104 108/73/105 109/74/106
s 4
f 36/48/73 49/44/67 43/55/80 35/49/84
f 32/75/107 31/76/108 36/48/73 35/49/84
f 25/39/109 50/77/110 33/47/111
f 21/31/52 51/30/51 50/77/110 25/39/109
s 13
f 87/78/112 86/79/113 88/80/114
s 4
f 55/81/115 54/82/116 22/28/117 26/50/118
f 34/52/119 55/81/115 26/50/118
f 33/47/111 36/48/72 31/76/108 29/57/85
f 50/77/110 56/43/66 36/48/72 33/47/111
s off
f 111/83/120 110/84/121 106/85/122 104/86/123
f 94/87/124 52/88/125 58/89/126 85/90/127
s 15
f 53/91/128 59/92/129 71/93/130 72/94/131
s 16
f 74/95/132 87/63/133 18/26/134 20/37/135
s off
f 105/96/136 107/97/137 112/98/138 113/99/139
s 4
f 35/49/74 61/45/69 55/81/115 34/52/119
f 30/58/86 32/75/107 35/49/74 34/52/119
s 17
f 80/100/140 84/101/141 83/102/142
s 18
f 62/103/143 58/89/144 52/88/145 63/19/146
s 19
f 92/104/147 93/105/148 94/106/149
f 95/107/150 92/104/147 96/108/151
f 96/108/151 92/104/147 97/109/152
s 20
f 65/110/153 46/111/154 40/112/155 66/113/156
s 13
f 87/78/112 89/114/157 90/115/158
s 22
f 68/67/159 67/116/160 14/16/161
s off
f 75/117/162 70/118/163 71/93/164 77/25/165
f 71/93/166 59/92/167 76/23/168 77/25/169
f 41/119/170 69/120/171 79/121/172 78/122/173
f 75/117/174 79/123/175 69/124/176 70/118/177
f 68/125/178 47/126/179 81/127/180 82/128/181
f 82/129/182 83/130/183 67/131/184 68/132/185
f 83/133/186 84/134/187 62/135/188 67/136/189
f 58/137/190 62/138/191 84/139/192 85/140/193
f 53/141/194 72/142/195 88/143/196 86/144/197
f 88/143/198 72/145/199 73/146/200 91/147/201
f 66/148/202 40/149/203 90/150/204 89/151/205
f 89/152/206 91/153/207 73/154/208 66/155/209
f 63/156/210 52/157/211 94/158/212 93/159/213
f 93/160/214 95/161/215 64/162/216 63/163/217
f 95/164/218 96/165/219 65/166/220 64/167/221
f 46/168/222 65/169/223 96/170/224 97/171/225
s 17
f 81/172/226 80/100/140 82/173/227
f 84/101/141 80/100/140 85/174/228
s 3
f 75/117/229 74/24/45 79/54/79
s 13
f 88/80/114 91/175/230 87/78/112
s 4
f 30/58/86 98/176/231 101/177/232 32/75/107
f 37/178/233 98/176/231 100/179/234
f 37/178/233 100/179/234 99/180/235
f 32/75/107 101/177/232 99/180/235 31/76/108
f 101/177/232 98/176/231 37/178/233
f 100/179/234 98/176/231 30/58/86 29/57/85
f 99/180/235 100/179/234 29/57/85 31/76/108
f 99/180/235 101/177/232 37/178/233
s off
f 39/27/236 45/38/237 102/60/238 103/59/239
f 45/38/240 44/40/241 104/61/242 102/60/243
f 44/40/244 38/51/245 105/62/246 104/61/247
f 38/51/248 39/27/249 103/59/250 105/62/251
f 43/55/252 49/44/253 106/72/254 107/71/255
f 49/44/256 48/32/257 108/73/258 106/72/259
f 48/32/260 42/56/261 109/74/262 108/73/263
f 42/56/264 43/55/265 107/71/266 109/74/267
f 51/30/268 57/41/269 110/84/270 111/83/271
f 57/41/272 56/43/273 106/85/274 110/84/275
f 56/43/276 50/77/277 104/86/278 106/85/279
f 50/77/280 51/30/281 111/83/282 104/86/283
f 55/81/284 61/45/285 107/97/286 105/96/287
f 61/45/288 60/35/289 112/98/290 107/97/291
f 60/35/292 54/82/293 113/99/294 112/98/295
f 54/82/296 55/81/297 105/96/298 113/99/299
s 3
f 75/117/229 77/25/46 74/24/45
s 17
f 80/100/140 83/102/142 82/173/227
s 13
f 87/78/112 91/175/230 89/114/157
s 19
f 95/107/150 93/105/148 92/104/147
s 23
f 16/18/300 66/113/301 73/181/302
s 24
f 71/93/303 70/118/304 15/15/305
s 1
f 11/11/11 9/12/13 3/4/16 4/7/12
s off
f 76/182/306 86/183/307 87/63/308 74/95/309
f 90/184/310 97/185/311 92/64/312 87/63/313
s 25
f 92/64/314 80/186/315 19/34/316 17/29/317
s 26
f 80/186/318 74/95/319 20/37/320 19/34/321
s off
f 76/182/322 59/92/323 53/91/324 86/183/325
f 90/184/326 40/112/327 46/111/328 97/185/329
f 94/87/330 85/90/331 80/186/332 92/64/333
f 81/69/334 78/70/335 74/95/336 80/186/337
s 4
f 19/34/338 23/33/64 57/41/63
s 26
f 48/32/339 19/34/321 20/37/320 42/56/340
s 4
f 42/56/81 20/37/341 24/36/82
s 16
f 60/35/342 20/37/135 18/26/134 54/82/343
s 4
f 54/82/116 18/26/344 22/28/117
s off
f 17/29/345 45/38/346 39/27/347 18/26/348
s 4
f 17/29/349 21/31/60 45/38/59
s 25
f 19/34/316 57/41/350 51/30/351 17/29/317
s 12
f 68/67/97 14/16/352 15/15/353 69/68/98
s 24
f 69/68/354 15/15/305 70/118/304
s 15
f 71/93/130 15/15/355 16/18/356 72/94/131
s 23
f 72/94/357 16/18/300 73/181/302
s 20
f 13/17/358 65/110/153 66/113/156 16/18/359
s 2
f 13/17/25 64/20/27 65/110/360
s 18
f 13/17/361 14/16/362 62/103/143 63/19/146
s 22
f 62/103/363 14/16/161 67/116/160
