# This file uses centimeters as units for non-parametric coordinates.

mtllib rock_1.mtl
g default
v -2.132896 -10.682384 -113.799408
v -0.378402 -25.684750 -108.002151
v -6.295568 23.312218 -91.153717
v 13.089622 -6.917860 -101.463837
v -11.607254 -5.168377 79.132393
v 1.670321 2.662692 76.394119
v 1.666711 19.394938 69.762657
v -10.625209 25.118721 66.095375
v 6.234210 13.146830 -94.072578
v -13.197052 11.453686 76.302406
v -5.578107 5.553651 -112.160706
v -7.643284 -28.186953 74.048492
v 9.317041 34.101303 54.597729
v 24.329042 21.523434 62.432800
v 27.415493 0.265545 70.104073
v 15.322721 -21.217485 74.746391
v -2.591618 -48.869560 46.795540
v 31.426794 -36.504536 50.369610
v 54.552952 -5.461707 48.124805
v 43.075573 30.970478 44.398415
v 26.255230 47.555298 42.613411
v 8.985067 56.282482 25.915743
v -18.503975 26.651140 -95.581924
v -38.867760 38.248234 30.999949
v -16.260077 35.373596 50.473270
v -25.447302 18.745350 64.832977
v -38.229454 -16.671989 64.540115
v -26.727919 -41.852997 42.767639
v -18.395487 -25.179773 -119.757416
v -12.963372 14.783842 -107.678299
v -32.588593 24.913603 -103.681129
v -17.903831 5.070304 -119.517807
v -42.170002 -10.794601 -122.268951
v -45.257259 5.605599 -112.667313
v -56.276299 -17.897181 35.428577
v -42.247261 17.457489 56.322983
v -24.844261 1.652824 73.253952
v 0.489151 -43.935822 -88.469612
v 23.235626 -32.350651 -87.309654
v 31.699902 -9.261423 -83.551582
v 32.030228 12.386756 -68.437469
v 13.046321 23.951416 -63.615231
v -6.345977 31.739563 -63.401398
v -24.465364 33.398415 -78.019104
v -42.724861 24.066050 -82.051208
v -58.182819 3.443602 -88.726601
v -62.626984 -33.575356 -90.598022
v -36.888153 -43.616302 -85.756027
v -4.551114 38.648510 -54.534191
v -48.880180 26.978127 -56.936131
v -68.489037 5.604083 -59.887489
v -62.160618 -34.730610 -53.863434
v -31.791168 -46.093231 -48.368393
v -0.572794 -42.868248 -44.843666
v 27.881056 -36.734287 -59.970112
v 47.605663 -11.544496 -64.230362
v 69.197594 -12.349953 9.976535
v 59.177555 23.447474 -5.749426
v 35.618999 46.069817 2.214676
v -3.191061 59.402287 0.790747
v -31.251835 49.940674 0.780813
v -60.301643 5.492574 11.680539
v -60.648228 -26.517263 5.319809
v -25.093584 -45.469845 8.207199
v 0.398946 -46.742661 9.105407
v 37.031597 -43.560768 9.912351
v 0.305032 -43.410294 -25.488138
v -32.577038 -44.672504 -25.153097
v -55.399227 -22.275539 -27.865421
v -64.947449 -1.294935 -19.873598
v -52.695061 30.040791 -13.014006
v -30.153395 45.877380 -29.487576
v -2.399636 55.192234 -31.948250
v 26.947147 42.330135 -31.290026
v 48.123417 23.010578 -33.991539
v 67.473671 -14.926082 -29.937489
v 34.841091 -41.990398 -25.368410
v -69.067749 -10.698997 -88.027672
v -61.054485 -14.560593 -110.799034
v -68.158897 -15.814263 -54.941555
v -65.415733 -24.713863 -32.621246
v -55.171806 -36.344246 -22.020475
v -66.140602 -19.828074 -26.444361
v -62.783680 -29.233492 -14.769703
v 42.951389 -0.282753 63.836197
v -33.795849 -35.990326 -115.024239
v -51.800331 -24.721794 -113.892181
v -65.185295 12.739927 -39.255470
v -29.355049 30.705284 -92.823380
v -64.168442 -34.927475 -73.272041
v -43.737568 -41.795612 -56.044975
v -31.534845 -45.699413 -53.732609
v -64.189598 -30.360760 -82.400352
v -31.640823 -43.322067 -50.528275
v -60.486851 -29.651421 -77.327118
v -63.776840 -18.376314 -84.847672
v -60.685081 -29.025478 -85.354340
v 41.647568 -27.599670 -64.677002
v 55.475990 -33.623459 -28.745579
v 53.114594 -27.955360 9.944443
v -22.037092 -38.673138 -101.881401
v -50.212475 -36.490578 -103.328873
v -28.302084 40.018120 -62.066078
v -22.608517 53.153065 17.584499
v 17.742371 53.632507 21.595984
v -1.273356 57.003941 17.969496
v -18.469934 54.059998 -31.618853
v 15.268946 48.743542 -31.237148
v 52.523693 35.266327 22.444910
v -17.624010 56.030678 0.752466
v -2.611143 59.545616 -15.845923
v -70.472672 -7.805534 -68.622368
v -69.675293 -10.556318 -54.074371
v -67.474625 -17.747934 -38.198574
v -66.992836 -12.961797 -54.934914
v -64.520912 -21.007406 -35.836861
v -32.454144 13.466199 -117.638504
v -29.019276 4.523029 -121.609970
v -24.038744 -10.026003 -125.752228
v -34.866833 -28.493895 -121.757919
v 17.998188 54.638275 35.411682
v 0.314120 46.694824 38.142715
v 61.611382 27.210098 12.626252
v 0.315236 -43.093719 -8.057689
v 16.032251 -50.516430 28.122982
v -5.358026 -42.139221 63.026985
v -18.986769 -34.290306 66.648361
v -58.647766 15.312735 36.114304
v 29.813745 -21.687729 -87.534424
v 50.159317 2.750458 -54.367699
v 64.585999 -2.689006 -22.124819
v 67.799110 2.647516 19.555676
v -34.821415 -34.165943 54.209244
v -51.690186 -29.365927 29.689299
v -42.483952 37.954182 -39.515720
vt 0.248301 0.606294
vt 0.219508 0.595123
vt 0.271205 0.669961
vt 0.220544 0.631604
vt 0.394452 0.981264
vt 0.205675 0.969126
vt 0.246689 0.952545
vt 0.291144 0.950654
vt 0.247091 0.657654
vt 0.345542 0.970879
vt 0.267610 0.624935
vt 0.458008 0.973049
vt 0.254818 0.918334
vt 0.215584 0.922427
vt 0.176116 0.933177
vt 0.140855 0.952638
vt 0.532622 0.911593
vt 0.095351 0.899989
vt 0.147159 0.881521
vt 0.205529 0.881965
vt 0.239256 0.883601
vt 0.266929 0.864101
vt 0.290990 0.667911
vt 0.339752 0.875607
vt 0.304109 0.915514
vt 0.339809 0.940450
vt 0.425529 0.929342
vt 0.494253 0.891915
vt 0.270596 0.566564
vt 0.281483 0.639976
vt 0.311952 0.658968
vt 0.295110 0.615577
vt 0.343712 0.609565
vt 0.337213 0.637520
vt 0.437904 0.872869
vt 0.365417 0.916606
vt 0.379842 0.956088
vt 0.479374 0.577269
vt 0.160034 0.636732
vt 0.187100 0.665752
vt 0.207791 0.700920
vt 0.242079 0.710286
vt 0.274190 0.715466
vt 0.302233 0.698327
vt 0.332515 0.691771
vt 0.365921 0.675344
vt 0.412913 0.645170
vt 0.445724 0.625244
vt 0.274859 0.732498
vt 0.347849 0.730493
vt 0.389045 0.720634
vt 0.449380 0.702775
vt 0.495596 0.691370
vt 0.545274 0.669529
vt 0.112341 0.674467
vt 0.160624 0.699309
vt 0.132425 0.817469
vt 0.185450 0.802071
vt 0.229062 0.822021
vt 0.283247 0.825085
vt 0.323362 0.824793
vt 0.401407 0.835896
vt 0.451665 0.820038
vt 0.521233 0.814352
vt 0.563200 0.817231
vt 0.070251 0.818019
vt 0.028622 0.719841
vt 0.509942 0.738914
vt 0.451546 0.759515
vt 0.409738 0.783510
vt 0.362641 0.799835
vt 0.320096 0.776891
vt 0.278824 0.775270
vt 0.236354 0.770317
vt 0.197239 0.759562
vt 0.137018 0.757460
vt 0.076592 0.743021
vt 0.391717 0.670055
vt 0.373111 0.636319
vt 0.422448 0.712950
vt 0.449248 0.740653
vt 0.474152 0.753686
vt 0.436468 0.769573
vt 0.450749 0.787194
vt 0.164263 0.910503
vt 0.392452 0.592885
vt 0.378838 0.618502
vt 0.384562 0.754460
vt 0.307614 0.676331
vt 0.434936 0.676897
vt 0.472888 0.686498
vt 0.490268 0.676618
vt 0.421301 0.659898
vt 0.492962 0.684327
vt 0.428534 0.666760
vt 0.406029 0.665830
vt 0.417752 0.654349
vt 0.137929 0.686332
vt 0.107900 0.748587
vt 0.100078 0.817984
vt 0.423530 0.589261
vt 0.405051 0.621566
vt 0.309753 0.725217
vt 0.310481 0.850389
vt 0.254532 0.854942
vt 0.280832 0.851160
vt 0.300623 0.775158
vt 0.254188 0.773390
vt 0.200878 0.846782
vt 0.303152 0.824987
vt 0.281476 0.800148
vt 0.401290 0.699310
vt 0.414779 0.718137
vt 0.433869 0.735345
vt 0.418772 0.715074
vt 0.441563 0.738683
vt 0.314207 0.632621
vt 0.313281 0.616334
vt 0.313797 0.588167
vt 0.373406 0.592849
vt 0.254390 0.875128
vt 0.278454 0.888171
vt 0.186411 0.829759
vt 0.566293 0.769016
vt 0.049658 0.863274
vt 0.501454 0.947640
vt 0.468852 0.944214
vt 0.384201 0.875795
vt 0.173050 0.651368
vt 0.175824 0.722309
vt 0.152782 0.771881
vt 0.153456 0.833920
vt 0.464668 0.910116
vt 0.459467 0.860886
vt 0.336792 0.759839
vt 0.150738 0.590740
vt 0.079361 0.962473
vt 0.046058 0.924464
vt 0.016832 0.769225
vt 0.559924 0.721136
vt 0.055553 0.673439
vt 0.010013 0.817592
vt 0.126215 0.984579
vt 0.194719 0.994933
vt 0.365310 0.564381
vt 0.243808 0.982752
vn 0.507783 -0.459695 -0.728585
vn 0.484781 0.004096 -0.874626
vn 0.662841 0.161169 -0.731209
vn 0.416484 0.825242 -0.381466
vn 0.363570 0.704811 -0.609146
vn 0.313563 0.839649 -0.443472
vn 0.350787 -0.395053 -0.849047
vn -0.718617 -0.152118 0.678564
vn -0.394242 -0.626920 0.671970
vn -0.136980 -0.402407 0.905155
vn -0.256804 0.802579 0.538441
vn -0.208864 0.817577 0.536604
vn -0.599586 0.724325 0.340366
vn 0.016099 0.711732 0.702267
vn 0.334401 0.491622 0.804042
vn 0.355170 0.795167 0.491492
vn 0.686941 0.464401 0.558967
vn 0.679279 -0.010790 0.733801
vn 0.584605 -0.670108 0.457376
vn 0.871171 -0.036882 0.489593
vn -0.172010 -0.112126 0.978693
vn 0.213691 0.192053 0.957837
vn -0.163176 0.388510 0.906881
vn 0.074995 -0.821500 0.565255
vn 0.344266 -0.349202 0.871515
vn -0.280707 -0.957244 0.069916
vn -0.041794 -0.994399 -0.097072
vn -0.406408 -0.898602 0.165369
vn -0.048710 -0.982130 0.181791
vn -0.048710 -0.982130 0.181791
vn 0.187292 -0.980439 0.060502
vn 0.436413 -0.899410 0.024613
vn 0.704409 -0.685178 0.185307
vn 0.509434 0.853637 -0.108536
vn 0.355170 0.795167 0.491492
vn 0.699457 0.670878 0.246340
vn 0.686941 0.464401 0.558967
vn -0.350767 0.855353 0.381226
vn 0.140968 0.989580 0.029310
vn -0.327845 0.944730 0.001679
vn 0.530740 0.354962 -0.769622
vn 0.350787 -0.395053 -0.849047
vn 0.382017 0.399153 -0.833511
vn 0.573008 0.615479 -0.541153
vn -0.109024 0.947765 0.299758
vn 0.371350 0.928487 -0.003280
vn -0.042957 0.983658 0.174845
vn 0.184361 0.512523 0.838648
vn -0.126579 0.726500 0.675407
vn -0.533370 0.112211 0.838407
vn 0.871171 -0.036882 0.489593
vn 0.699457 0.670878 0.246340
vn 0.679279 -0.010790 0.733801
vn 0.305525 0.213641 0.927908
vn -0.400885 0.581769 0.707698
vn 0.344266 -0.349202 0.871515
vn -0.136980 -0.402407 0.905155
vn -0.028373 -0.949192 -0.313415
vn 0.098858 -0.994292 -0.040134
vn -0.163624 -0.986150 0.027105
vn 0.039750 -0.999184 -0.007195
vn 0.297587 -0.943042 -0.148708
vn 0.249051 -0.965647 -0.074160
vn 0.708368 -0.575993 -0.407979
vn 0.670915 -0.728699 -0.137371
vn 0.971699 -0.056922 -0.229260
vn 0.797137 0.390352 -0.460650
vn 0.686932 0.613944 -0.388840
vn 0.561694 0.641919 -0.521957
vn 0.402864 0.788500 -0.464723
vn 0.524049 0.736804 -0.427192
vn 0.375543 0.855223 -0.357158
vn 0.253182 0.791156 -0.556751
vn 0.206732 0.887998 -0.410757
vn -0.271929 0.916265 -0.294132
vn -0.321759 0.796984 -0.511162
vn -0.201338 0.910644 -0.360819
vn -0.615792 0.777605 -0.127007
vn -0.574861 0.809774 -0.117480
vn -0.599586 0.724325 0.340366
vn -0.620710 0.783854 0.017076
vn -0.817418 0.572521 0.063620
vn -0.683213 0.362154 0.634085
vn -0.910501 -0.230470 0.343325
vn -0.964880 0.238365 0.110400
vn -0.917200 -0.365532 0.158529
vn -0.910501 -0.230470 0.343325
vn -0.665612 0.542747 -0.512237
vn -0.174339 0.333298 -0.926563
vn -0.347821 0.033437 -0.936964
vn -0.879229 0.475346 0.031668
vn -0.980031 0.147309 0.133564
vn -0.321759 0.796984 -0.511162
vn -0.057806 0.652903 -0.755232
vn -0.905233 0.319675 0.279929
vn 0.101257 0.016929 -0.994716
vn -0.870425 0.114810 0.478726
vn -0.681678 -0.583251 0.441739
vn -0.812639 -0.244688 0.528910
vn -0.624330 -0.729984 0.278094
vn -0.406408 -0.898602 0.165369
vn -0.626725 -0.674153 0.390813
vn 0.382017 0.399153 -0.833511
vn 0.537078 -0.644146 -0.544632
vn 0.203600 -0.951698 -0.229821
vn 0.730704 0.281169 -0.622106
vn 0.722201 -0.175132 -0.669145
vn 0.317523 0.862785 -0.393423
vn 0.086182 0.949099 -0.302958
vn -0.647993 0.710663 -0.273976
vn -0.154465 0.949362 -0.273593
vn -0.742615 0.592080 -0.312994
vn -0.829787 0.101204 -0.548827
vn -0.565784 -0.429172 -0.704060
vn -0.426869 -0.808394 -0.405317
vn -0.834221 -0.544275 0.088545
vn 0.098264 -0.901508 -0.421459
vn -0.257582 -0.963055 -0.078592
vn -0.670671 0.714671 -0.198610
vn -0.903258 0.413527 -0.114543
vn -0.685631 -0.726642 0.043599
vn -0.987991 0.033324 0.150873
vn -0.984851 -0.096759 -0.143900
vn -0.360837 -0.754097 -0.548757
vn -0.036688 -0.926482 -0.374546
vn -0.685631 -0.726642 0.043599
vn -0.301481 -0.916451 0.263109
vn 0.537078 -0.644146 -0.544632
vn 0.722201 -0.175132 -0.669145
vn 0.821482 0.522067 -0.229375
vn 0.930823 0.318139 -0.179880
vn 0.168011 0.978103 -0.122831
vn -0.690482 -0.707966 -0.148387
vn -0.917200 -0.365532 0.158529
vn 0.003193 -0.995750 -0.092041
vn -0.829787 0.101204 -0.548827
vn -0.360837 -0.754097 -0.548757
vn -0.984851 -0.096759 -0.143900
vn -0.984851 -0.096759 -0.143900
vn -0.903258 0.413527 -0.114543
vn -0.816647 -0.506537 -0.276601
vn -0.994122 0.076180 -0.076934
vn -0.944602 -0.328217 -0.000940
vn -0.918533 -0.213738 0.332585
vn -0.870425 0.114810 0.478726
vn -0.681678 -0.583251 0.441739
vn -0.870425 0.114810 0.478726
vn -0.903258 0.413527 -0.114543
vn -0.918533 -0.213738 0.332585
vn -0.812639 -0.244688 0.528910
vn -0.690482 -0.707966 -0.148387
vn -0.816647 -0.506537 -0.276601
vn -0.812639 -0.244688 0.528910
vn -0.280707 -0.957244 0.069916
vn -0.903258 0.413527 -0.114543
vn -0.280707 -0.957244 0.069916
vn 0.305525 0.213641 0.927908
vn -0.834221 -0.544275 0.088545
vn -0.426869 -0.808394 -0.405317
vn 0.350787 -0.395053 -0.849047
vn -0.158875 -0.401461 -0.901991
vn -0.347821 0.033437 -0.936964
vn -0.064809 -0.851860 -0.519745
vn -0.347821 0.033437 -0.936964
vn -0.158875 -0.401461 -0.901991
vn -0.690482 -0.707966 -0.148387
vn -0.879229 0.475346 0.031668
vn -0.154465 0.949362 -0.273593
vn 0.086182 0.949099 -0.302958
vn -0.809075 -0.578666 -0.102679
vn -0.896742 -0.414033 -0.156303
vn -0.740607 -0.663818 -0.104147
vn -0.809075 -0.578666 -0.102679
vn -0.301481 -0.916451 0.263109
vn 0.098858 -0.994292 -0.040134
vn -0.060805 -0.942763 -0.327872
vn -0.809075 -0.578666 -0.102679
vn -0.301481 -0.916451 0.263109
vn -0.530309 -0.839477 -0.118539
vn -0.060805 -0.942763 -0.327872
vn -0.257582 -0.963055 -0.078592
vn -0.060805 -0.942763 -0.327872
vn 0.098858 -0.994292 -0.040134
vn -0.028373 -0.949192 -0.313415
vn -0.530309 -0.839477 -0.118539
vn -0.036688 -0.926482 -0.374546
vn -0.360837 -0.754097 -0.548757
vn -0.530309 -0.839477 -0.118539
vn -0.896742 -0.414033 -0.156303
vn -0.809075 -0.578666 -0.102679
vn -0.984851 -0.096759 -0.143900
vn -0.896742 -0.414033 -0.156303
vn -0.360837 -0.754097 -0.548757
vn -0.530309 -0.839477 -0.118539
vn -0.740607 -0.663818 -0.104147
vn -0.896742 -0.414033 -0.156303
vn -0.834221 -0.544275 0.088545
vn -0.984851 -0.096759 -0.143900
vn -0.257582 -0.963055 -0.078592
vn -0.740607 -0.663818 -0.104147
vn -0.834221 -0.544275 0.088545
vn 0.982118 -0.166604 0.087676
vn 0.830479 -0.027200 -0.556386
vn 0.708368 -0.575993 -0.407979
vn 0.971699 -0.056922 -0.229260
vn 0.670915 -0.728699 -0.137371
vn 0.982118 -0.166604 0.087676
vn 0.971699 -0.056922 -0.229260
vn -0.064809 -0.851860 -0.519745
vn 0.830479 -0.027200 -0.556386
vn -0.109024 0.947765 0.299758
vn 0.229526 0.903521 0.361893
vn 0.845079 0.526754 0.091500
vn 0.845079 0.526754 0.091500
vn -0.994122 0.076180 -0.076934
vn -0.994122 0.076180 -0.076934
vn -0.937384 -0.347168 0.028017
vn -0.944602 -0.328217 -0.000940
vn -0.918533 -0.213738 0.332585
vn -0.880310 0.189016 0.435118
vn -0.812639 -0.244688 0.528910
vn -0.918533 -0.213738 0.332585
vn -0.880310 0.189016 0.435118
vn -0.994122 0.076180 -0.076934
vn -0.987991 0.033324 0.150873
vn -0.937384 -0.347168 0.028017
vn -0.880310 0.189016 0.435118
vn -0.870425 0.114810 0.478726
vn -0.880310 0.189016 0.435118
vn -0.057806 0.652903 -0.755232
vn 0.101257 0.016929 -0.994716
vn -0.057806 0.652903 -0.755232
vn -0.347821 0.033437 -0.936964
vn 0.101257 0.016929 -0.994716
vn 0.350787 -0.395053 -0.849047
vn -0.158875 -0.401461 -0.901991
vn 0.229526 0.903521 0.361893
vn 0.972475 0.179515 0.148546
vn 0.982118 -0.166604 0.087676
vn 0.972475 0.179515 0.148546
vn 0.187292 -0.980439 0.060502
vn -0.905233 0.319675 0.279929
vn -0.905233 0.319675 0.279929
vn -0.905233 0.319675 0.279929
vn 0.845079 0.526754 0.091500
vn -0.626725 -0.674153 0.390813
vn -0.910501 -0.230470 0.343325
vn -0.624330 -0.729984 0.278094
s 1
g lp_rock_1
usemtl phongE2SG
f 2/2/1 1/1/2 4/4/3
f 3/3/4 30/30/5 23/23/6
f 1/1/2 2/2/1 29/29/7
f 27/27/8 127/127/9 12/12/10
f 25/25/11 122/122/12 24/24/13
f 13/13/14 14/14/15 21/21/16
f 21/21/16 14/14/15 20/20/17
f 85/85/18 18/18/19 19/19/20
f 5/144/21 6/6/22 10/146/23
f 126/137/24 18/18/19 16/16/25
f 64/64/26 65/65/27 28/28/28
f 28/28/28 65/65/27 17/17/29
f 17/138/30 125/125/31 18/18/19
f 66/66/32 100/100/33 18/18/19
f 59/59/34 21/21/35 109/109/36
f 109/109/36 21/21/35 20/20/37
f 104/104/38 60/60/39 110/110/40
f 11/11/41 29/29/42 32/32/43
f 9/9/44 11/11/41 30/30/5
f 9/9/44 30/30/5 3/3/4
f 22/22/45 105/105/46 106/106/47
f 7/7/48 8/8/49 10/146/23
f 10/10/23 37/37/50 5/5/21
f 9/9/44 4/4/3 11/11/41
f 19/19/51 109/109/52 20/20/17
f 85/85/53 14/14/15 15/15/54
f 6/6/22 7/7/48 10/146/23
f 1/1/2 11/11/41 4/4/3
f 12/12/10 5/5/21 27/27/8
f 27/27/8 5/5/21 37/37/50
f 26/26/55 8/8/49 25/25/11
f 7/7/48 13/13/14 8/8/49
f 8/8/49 13/13/14 25/25/11
f 14/14/15 13/13/14 7/7/48
f 6/6/22 15/15/54 7/7/48
f 7/7/48 15/15/54 14/14/15
f 6/6/22 16/16/56 15/15/54
f 12/143/57 16/16/56 5/144/21
f 5/144/21 16/16/56 6/6/22
f 53/53/58 54/54/59 68/68/60
f 68/68/60 54/54/59 67/140/61
f 55/55/62 77/77/63 54/141/59
f 54/141/59 77/77/63 67/67/61
f 98/98/64 99/99/65 55/55/62
f 55/55/62 99/99/65 77/77/63
f 76/76/66 130/130/67 75/75/68
f 41/41/69 42/42/70 75/75/68
f 75/75/68 42/42/70 74/74/71
f 108/108/72 49/49/73 73/73/74
f 49/49/73 107/107/75 73/73/74
f 30/30/5 31/31/76 23/23/6
f 103/103/77 135/135/78 72/72/79
f 24/24/80 61/61/81 71/71/82
f 25/25/11 24/24/13 36/36/83
f 26/26/55 25/25/11 36/36/83
f 36/36/83 27/27/8 37/37/50
f 35/35/84 27/27/8 36/36/83
f 62/62/85 63/63/86 35/35/87
f 34/34/88 118/118/89 33/33/90
f 71/71/82 62/62/85 24/24/80
f 71/71/82 88/88/91 70/70/92
f 31/31/93 117/117/94 34/34/88
f 36/36/83 128/128/95 35/35/84
f 36/36/83 37/37/50 26/26/55
f 37/37/50 10/10/23 26/26/55
f 26/26/55 10/10/23 8/8/49
f 1/1/2 29/29/42 11/11/41
f 29/29/42 119/119/96 32/32/43
s 30
f 81/81/97 82/82/98 69/69/99
s 1
f 35/35/87 134/134/100 28/28/101
f 27/27/8 35/35/84 133/133/102
f 11/11/41 32/32/103 30/30/5
f 4/4/3 39/39/104 2/2/1
f 2/2/1 39/39/104 38/136/105
f 40/40/106 129/129/107 4/4/3
f 41/41/69 40/40/106 9/9/44
f 9/9/44 40/40/106 4/4/3
f 9/9/44 42/42/70 41/41/69
f 43/43/108 42/42/70 3/3/4
f 3/3/4 42/42/70 9/9/44
f 44/44/109 43/43/108 3/3/4
f 31/31/93 45/45/110 89/89/111
f 31/31/93 46/46/112 45/45/110
f 34/34/88 33/33/90 79/79/113
s 35
f 87/87/114 102/102/115 47/47/116
s 1
f 101/101/117 38/38/105 48/48/118
f 103/103/77 43/43/108 44/44/109
f 50/50/119 103/103/77 45/45/110
f 50/50/119 45/45/110 51/51/120
f 51/51/120 45/45/110 46/46/112
s 37
f 52/52/121 80/80/122 78/78/123
s 1
f 90/90/124 91/91/125 52/52/126
f 54/54/59 92/92/127 38/38/105
f 38/38/105 92/92/127 48/48/118
f 39/39/128 55/55/62 38/136/105
f 38/136/105 55/55/62 54/141/59
f 98/98/64 39/39/128 129/129/129
f 75/75/68 58/58/130 131/131/131
f 58/58/130 75/75/68 59/59/34
f 59/59/34 75/75/68 74/74/71
f 73/73/74 59/59/34 108/108/72
f 107/107/75 111/111/132 73/73/74
f 71/71/82 61/61/81 72/72/79
f 62/62/85 71/71/82 70/70/92
f 70/70/92 63/63/86 62/62/85
f 84/84/133 64/64/26 63/63/134
f 64/64/26 124/124/135 65/65/27
f 124/139/135 77/77/63 65/142/27
f 99/99/65 100/100/33 77/77/63
f 77/77/63 100/100/33 66/66/32
s 35
f 47/47/116 79/79/136 87/87/114
s 37
f 52/52/121 78/78/123 90/90/137
s 35
f 78/78/138 79/79/136 47/47/116
s 1
f 34/34/88 79/79/113 46/46/112
f 46/46/112 79/79/113 78/78/139
f 51/51/140 83/83/141 70/70/92
f 78/78/139 112/112/142 46/46/112
f 51/51/120 113/113/143 114/114/144
s 37
f 81/81/145 80/80/122 52/52/121
s 1
f 68/68/60 82/82/146 52/52/126
f 52/52/126 82/82/146 81/81/147
f 68/68/60 64/64/26 82/82/146
s off
f 51/51/148 114/114/149 69/69/150
s 44
f 84/84/151 83/83/152 69/69/153
f 69/69/153 64/64/154 84/84/151
f 51/51/155 69/69/153 83/83/152
s 30
f 82/82/98 64/64/156 69/69/99
s 1
f 15/15/157 16/16/25 85/85/18
f 85/85/18 16/16/25 18/18/19
f 85/85/53 20/20/17 14/14/15
f 19/19/51 20/20/17 85/85/53
f 48/48/118 47/47/158 102/102/159
s off
f 29/145/160 120/120/161 33/33/162
s 1
f 48/48/118 86/86/163 101/101/117
s 35
f 87/87/114 79/79/136 33/33/164
f 33/33/164 120/120/165 87/87/114
s 1
f 91/91/125 53/53/58 52/52/126
f 52/52/126 53/53/58 68/68/60
f 83/83/141 84/84/166 70/70/92
f 70/70/92 84/84/166 63/63/86
f 50/50/119 88/88/167 71/71/82
f 50/50/119 51/51/120 88/88/167
f 70/70/92 88/88/91 51/51/140
f 31/31/76 89/89/168 23/23/6
f 89/89/111 45/45/110 44/44/169
f 23/23/6 89/89/168 44/44/109
s 46
f 93/93/170 96/96/171 97/97/172
s 1
f 48/48/118 92/92/127 93/93/173
s off
f 92/92/174 54/54/175 94/94/176
s 47
f 93/93/177 92/92/178 95/95/179
f 95/95/179 92/92/178 94/94/180
s 46
f 48/48/181 93/93/170 97/97/172
s 48
f 94/94/182 54/54/183 53/53/184
f 95/95/185 91/91/186 90/90/187
s off
f 95/95/188 96/96/189 93/93/190
s 50
f 78/78/191 96/96/192 90/90/193
f 90/90/193 96/96/192 95/95/194
s 51
f 97/97/195 96/96/196 47/47/197
f 47/47/197 96/96/196 78/78/198
s off
f 48/48/199 97/97/200 47/47/201
s 1
f 65/142/27 77/77/63 66/66/32
f 57/57/202 131/131/131 58/58/130
f 56/56/203 98/98/204 40/40/106
f 40/40/106 98/98/204 129/129/107
f 76/76/205 99/99/206 56/56/203
f 56/56/203 99/99/206 98/98/204
f 57/57/207 100/100/33 76/76/208
f 76/76/208 100/100/33 99/99/65
f 18/18/19 100/100/33 19/19/20
f 19/19/20 100/100/33 57/57/207
f 101/101/117 86/86/163 29/145/7
f 2/2/1 38/136/105 29/29/7
s 35
f 87/87/114 86/86/209 102/102/115
s 1
f 48/48/118 102/102/159 86/86/163
f 45/45/110 103/103/77 44/44/169
f 103/103/77 49/49/73 43/43/108
f 42/42/70 43/43/108 49/49/73
f 40/40/106 41/41/69 56/56/210
f 24/24/80 104/104/38 61/61/81
f 22/22/211 104/104/38 24/24/13
f 22/22/211 106/106/47 104/104/38
f 105/105/46 59/59/34 60/60/39
f 121/121/212 105/105/46 22/22/45
f 21/21/35 59/59/34 105/105/46
f 106/106/47 105/105/46 60/60/39
f 104/104/38 106/106/47 60/60/39
f 72/72/79 107/107/75 103/103/77
f 103/103/77 107/107/75 49/49/73
f 61/61/81 107/107/75 72/72/79
f 108/108/72 59/59/34 74/74/71
f 42/42/70 49/49/73 74/74/71
f 74/74/71 49/49/73 108/108/72
f 19/19/51 123/123/213 109/109/52
f 123/123/214 59/59/34 109/109/36
f 61/61/81 110/110/40 107/107/75
f 104/104/38 110/110/40 61/61/81
f 107/107/75 110/110/40 111/111/132
f 111/111/132 110/110/40 60/60/39
f 59/59/34 111/111/132 60/60/39
s 37
f 78/78/123 80/80/122 112/112/215
s 1
f 112/112/142 113/113/143 51/51/120
f 46/46/112 112/112/142 51/51/120
s 55
f 112/112/216 115/115/217 113/113/218
f 113/113/218 115/115/217 114/114/219
f 114/114/219 115/115/217 116/116/220
s off
f 69/69/221 114/114/222 116/116/223
s 56
f 112/112/224 80/80/225 115/115/226
f 115/115/226 80/80/225 116/116/227
f 116/116/227 80/80/225 81/81/228
s 30
f 69/69/99 116/116/229 81/81/97
s 1
f 31/31/76 30/30/5 117/117/230
f 117/117/230 30/30/5 32/32/103
f 118/118/89 32/32/103 119/119/231
f 117/117/232 118/118/89 34/34/88
f 32/32/103 118/118/89 117/117/230
s off
f 33/33/233 119/119/234 29/145/235
s 1
f 118/118/89 119/119/231 33/33/90
f 29/145/7 86/86/163 120/120/236
s 35
f 87/87/114 120/120/165 86/86/209
s 1
f 13/13/14 122/122/12 25/25/11
f 21/21/35 105/105/46 121/121/212
f 121/121/237 122/122/12 21/21/16
f 21/21/16 122/122/12 13/13/14
f 122/122/12 121/121/237 22/22/211
f 24/24/13 122/122/12 22/22/211
f 58/58/130 132/132/238 57/57/202
f 19/19/51 57/57/239 132/132/240
f 58/58/130 59/59/34 123/123/214
f 67/140/61 124/124/135 68/68/60
f 67/67/61 77/77/63 124/139/135
f 125/125/31 66/66/32 18/18/19
f 65/142/27 125/125/241 17/138/29
f 65/142/27 66/66/32 125/125/241
f 133/133/102 127/127/9 27/27/8
f 126/137/24 16/16/25 12/143/10
f 17/138/30 18/18/19 126/137/24
f 28/28/28 126/126/24 127/127/9
f 12/12/10 127/127/9 126/126/24
f 68/68/60 124/124/135 64/64/26
f 17/17/29 126/126/24 28/28/28
f 44/44/109 3/3/4 23/23/6
f 128/128/242 62/62/85 35/35/87
f 36/36/83 24/24/13 128/128/243
f 24/24/80 62/62/85 128/128/244
f 4/4/3 129/129/107 39/39/104
f 56/56/210 130/130/67 76/76/66
f 56/56/210 41/41/69 130/130/67
f 75/75/68 130/130/67 41/41/69
f 76/76/66 131/131/131 57/57/202
f 75/75/68 131/131/131 76/76/66
f 123/123/245 132/132/238 58/58/130
f 19/19/51 132/132/240 123/123/213
f 133/133/246 35/35/247 28/28/28
f 28/28/28 127/127/9 133/133/246
f 35/35/87 63/63/86 134/134/100
f 134/134/248 63/63/134 64/64/26
f 28/28/28 134/134/248 64/64/26
f 72/72/79 135/135/78 71/71/82
f 103/103/77 50/50/119 135/135/78
f 71/71/82 135/135/78 50/50/119
f 31/31/93 34/34/88 46/46/112
f 73/73/74 111/111/132 59/59/34
f 29/145/7 38/38/105 101/101/117
f 98/98/64 55/55/62 39/39/128
s 48
f 91/91/186 94/94/182 53/53/184
f 95/95/185 94/94/182 91/91/186
