# This file uses centimeters as units for non-parametric coordinates.

mtllib rubble.mtl
g default
v 14.892299 26.961559 -60.090118
v 16.642530 23.189100 -69.079224
v 4.755285 23.400187 -72.190315
v 2.784987 26.394672 -67.221573
v 25.259331 23.190088 -59.204651
v 13.367062 23.170664 -45.598267
v 23.297779 23.170662 -49.868179
v 2.799211 23.209517 -46.706806
v -8.904144 23.201614 -58.954147
v -4.130491 25.215343 -62.056042
v -4.684802 23.170662 -68.278801
v -22.156837 23.170662 -45.877708
v -29.701788 23.264969 -45.820778
v -29.196867 27.381172 -43.874779
v -15.057868 25.340612 -38.466232
v -13.771720 23.263334 -38.916584
v -8.305609 23.187721 -16.177015
v -9.605628 23.484329 -25.294174
v -28.476225 30.502697 -34.104145
v -43.251156 23.170664 -25.695749
v -25.198591 23.318449 -5.369660
v -26.754358 27.768330 -12.812515
v -33.643948 26.873665 -12.570642
v -36.382961 23.260017 -9.503742
v -14.632412 26.757587 -21.116785
v -37.128185 23.408844 -38.076576
v -88.606583 23.170662 -38.522633
v -88.494995 28.373430 -16.189190
v -67.085175 32.908882 -33.537567
v -96.543076 23.170662 -21.839539
v -96.523109 23.170662 -11.171463
v -86.466537 23.170662 -0.740826
v -61.127995 23.170664 1.866043
v -62.733322 28.125248 -10.060482
v -59.494389 30.655388 -22.264215
v -48.457092 23.399685 -26.879688
v -59.004436 23.475533 -47.194042
v -51.080387 23.170662 -39.384060
v -51.707218 26.286091 -38.059650
v -71.415894 23.170662 -45.776390
v -69.636322 28.282612 -43.573013
v -50.508728 27.677711 27.838297
v -67.328445 23.327206 30.347496
v -13.224040 23.205162 36.289433
v -9.263824 23.219349 29.818741
v -16.694193 23.321913 2.926839
v -56.392021 23.293898 12.259439
v -31.101400 29.088148 13.365202
v -10.296449 23.170662 8.433903
v -37.677803 23.245817 48.759895
v -60.755146 23.210075 44.023582
v -39.682831 23.170662 6.583180
v 25.221756 23.187628 -11.229531
v 20.758886 23.283642 -3.217972
v 27.534332 25.736717 -0.189104
v 33.388206 23.183041 -13.632421
v 30.636307 23.187012 4.098295
v 38.302841 23.292570 -8.043442
v 22.668804 23.285904 4.345969
v -2.986697 23.257853 2.653006
v -8.240021 24.210449 -2.178619
v -12.671005 23.191978 0.091607
v -8.692478 23.171303 3.626295
v -8.622383 23.170662 -6.572823
v -0.794958 23.170660 -3.005594
v -12.676332 23.170681 -3.593592
v -42.318035 23.178598 -49.851669
v -43.808777 23.932974 -53.352287
v -47.775894 23.199852 -53.322594
v -47.158680 23.219381 -49.967789
v -39.073788 23.173990 -53.352753
v -40.183861 23.170664 -56.697075
v -45.043606 23.170765 -56.193031
vt 0.000000 0.000000
vt 0.745090 0.000000
vt 0.793428 0.923203
vt 0.342194 1.000000
vt 0.000000 0.000000
vt 1.000000 0.000000
vt 1.000000 1.000000
vt 0.000000 1.000000
vt 0.000000 0.000000
vt 1.000000 0.000000
vt 1.000000 1.000000
vt 0.000000 1.000000
vt 0.000000 0.000000
vt 1.000000 0.000000
vt 1.000000 1.000000
vt 0.000000 1.000000
vt 0.000000 0.000000
vt 1.000000 0.000000
vt 1.000000 1.000000
vt 0.000000 1.000000
vt 0.000000 0.000000
vt 1.000000 0.000000
vt 0.500000 1.000000
vt 0.000000 0.000000
vt 1.000000 0.000000
vt 0.500000 1.000000
vt 1.000000 1.000000
vt 0.000000 1.000000
vt 1.000000 0.000000
vt 1.000000 1.000000
vt 1.000000 0.000000
vt 0.000000 0.000000
vt 0.000000 0.000000
vt 0.000000 0.000000
vt 1.000000 0.000000
vt 0.000000 0.600000
vt 1.000000 0.500000
vt 0.000000 0.000000
vt 1.000000 0.000000
vt 1.000000 1.000000
vt 0.000000 1.000000
vt 1.000000 0.000000
vt 0.000000 0.000000
vt 1.000000 0.000000
vt 1.000000 1.000000
vt 0.000000 1.000000
vt 1.000000 1.000000
vt 0.000000 0.000000
vt 1.000000 0.000000
vt 0.500000 1.000000
vt 0.000000 0.000000
vt 1.000000 1.000000
vt 0.000000 1.000000
vt 0.000000 1.000000
vt 0.000000 0.000000
vt 1.000000 0.000000
vt 0.500000 1.000000
vt 0.000000 1.000000
vt 1.000000 0.000000
vt 1.000000 1.000000
vt 0.000000 0.000000
vt 1.000000 0.000000
vt 1.000000 1.000000
vt 0.000000 1.000000
vt 0.000000 0.000000
vt 0.000000 1.000000
vt 1.000000 1.000000
vt 0.000000 1.000000
vt 0.000000 0.000000
vt 1.000000 0.000000
vt 1.000000 0.000000
vt 0.000000 0.000000
vt 1.000000 0.000000
vt 1.000000 1.000000
vt 0.000000 1.000000
vt 0.000000 0.000000
vt 1.000000 0.000000
vt 0.250000 1.000000
vt 0.000000 0.000000
vt 0.342239 0.570399
vt 0.000000 1.000000
vt 0.250000 0.500000
vt 0.500000 1.000000
vt 1.000000 1.000000
vt 0.600000 1.000000
vt 0.500000 1.000000
vt 0.000000 0.000000
vt 1.000000 1.000000
vt 0.000000 1.000000
vt 1.000000 1.000000
vt 0.000000 1.000000
vt 0.540283 1.000000
vt 0.000000 1.000000
vt 1.000000 1.000000
vt 0.000000 1.000000
vt 1.000000 1.000000
vt 0.000000 1.000000
vt 0.000000 0.000000
vt 1.000000 0.000000
vt 1.000000 0.000000
vt 1.000000 1.000000
vt 1.000000 1.000000
vt 0.000000 0.000000
vt 1.000000 1.000000
vt 0.000000 1.000000
vt 1.000000 0.000000
vt 0.000000 0.000000
vt 1.000000 1.000000
vt 1.000000 0.000000
vt 0.000000 0.000000
vt 1.000000 0.000000
vt 1.000000 1.000000
vt 0.000000 1.000000
vt 0.000000 0.000000
vt 1.000000 0.000000
vt 1.000000 1.000000
vt 0.000000 1.000000
vt 0.000000 0.000000
vt 1.000000 0.000000
vt 1.000000 1.000000
vt 0.000000 1.000000
vt 0.000000 0.000000
vt 1.000000 0.000000
vt 1.000000 1.000000
vt 0.000000 1.000000
vt 0.000000 0.000000
vt 1.000000 0.000000
vt 1.000000 1.000000
vt 0.000000 1.000000
vt 0.000000 0.000000
vt 1.000000 0.000000
vt 1.000000 1.000000
vt 0.000000 1.000000
vt 0.000000 0.000000
vt 1.000000 0.000000
vt 1.000000 1.000000
vt 0.000000 1.000000
vt 0.000000 0.000000
vt 1.000000 0.000000
vt 1.000000 1.000000
vt 0.000000 1.000000
vt 0.000000 0.000000
vt 1.000000 0.000000
vt 1.000000 1.000000
vt 0.000000 1.000000
vn 0.226479 0.902836 -0.365505
vn 0.202277 0.904018 -0.376611
vn 0.156022 0.904494 -0.396922
vn 0.156022 0.904494 -0.396922
vn 0.209156 0.960381 0.184178
vn 0.209156 0.960381 0.184178
vn 0.209156 0.960381 0.184178
vn 0.209156 0.960381 0.184178
vn -0.092087 0.977304 0.190780
vn -0.092087 0.977304 0.190780
vn -0.092087 0.977304 0.190780
vn -0.092087 0.977304 0.190780
vn -0.121495 0.975698 0.182355
vn -0.125904 0.974787 0.184226
vn -0.053810 0.986723 0.153238
vn -0.308027 0.852299 -0.422736
vn -0.330066 0.853450 -0.403335
vn -0.387431 0.852914 -0.349907
vn -0.308027 0.852299 -0.422736
vn -0.245116 0.940925 0.233621
vn -0.501121 0.834384 -0.229524
vn 0.348510 0.886565 -0.304208
vn -0.541571 0.801867 -0.252409
vn -0.581781 0.751475 -0.311152
vn -0.574988 0.760809 -0.300929
vn -0.168350 0.791125 0.588031
vn -0.168350 0.791125 0.588031
vn -0.168350 0.791125 0.588031
vn -0.168350 0.791125 0.588031
vn -0.325539 0.942083 0.080644
vn -0.184653 0.978420 0.092725
vn 0.045829 0.998735 -0.020676
vn -0.325539 0.942083 0.080644
vn 0.287906 0.876987 0.384714
vn 0.287906 0.876987 0.384714
vn 0.287906 0.876986 0.384714
vn 0.287906 0.876987 0.384714
vn -0.643762 0.716344 0.269113
vn -0.643762 0.716344 0.269113
vn -0.643762 0.716344 0.269113
vn -0.616656 0.696962 -0.366033
vn -0.616656 0.696962 -0.366033
vn 0.517932 0.854181 -0.046063
vn 0.395194 0.915025 -0.080944
vn 0.316917 0.948366 -0.012914
vn 0.430444 0.673117 -0.601358
vn 0.383645 0.874533 -0.296661
vn 0.797161 0.548345 -0.252689
vn -0.362339 0.908139 -0.209748
vn -0.362339 0.908139 -0.209748
vn -0.362339 0.908139 -0.209748
vn -0.468914 0.872754 -0.135722
vn -0.468914 0.872754 -0.135722
vn -0.468914 0.872754 -0.135722
vn -0.468914 0.872754 -0.135722
vn -0.033897 0.978055 0.205569
vn -0.089529 0.944215 0.316928
vn -0.078284 0.952408 0.294604
vn -0.033897 0.978055 0.205569
vn 0.579866 0.766206 0.276918
vn 0.579866 0.766206 0.276918
vn 0.579866 0.766206 0.276918
vn 0.579866 0.766206 0.276918
vn 0.390919 0.829461 -0.398969
vn 0.128425 0.946292 -0.296714
vn 0.440435 0.897247 -0.031060
vn -0.018589 0.827469 -0.561203
vn -0.341986 0.825487 -0.449017
vn 0.312959 0.707734 -0.633379
vn 0.584523 0.810425 0.039306
vn 0.003855 0.659870 -0.751370
vn -0.234995 0.961557 -0.142074
vn -0.168514 0.901923 -0.397665
vn -0.186365 0.920094 -0.344521
vn -0.221860 0.953015 -0.206255
vn 0.097475 0.979661 0.175393
vn 0.097475 0.979661 0.175393
vn 0.097475 0.979661 0.175393
vn 0.097475 0.979661 0.175393
vn 0.216672 0.949813 -0.225629
vn 0.216672 0.949813 -0.225629
vn 0.216672 0.949813 -0.225629
vn 0.270201 0.962683 -0.015239
vn 0.270201 0.962683 -0.015239
vn 0.270201 0.962683 -0.015239
vn 0.082220 0.984007 0.158021
vn 0.082220 0.984007 0.158021
vn 0.082220 0.984007 0.158021
vn -0.049984 0.970413 0.236220
vn -0.049984 0.970413 0.236220
vn -0.049984 0.970413 0.236220
vn -0.097755 0.807871 -0.581196
vn 0.284146 0.797191 -0.532680
vn 0.296724 0.675361 -0.675161
vn 0.296723 0.675361 -0.675161
vn 0.217003 0.724642 -0.654067
vn -0.108198 0.929053 0.353772
vn -0.108198 0.929053 0.353772
vn -0.108198 0.929053 0.353772
vn -0.254817 0.966445 -0.032451
vn -0.254817 0.966445 -0.032451
vn -0.150842 0.969676 -0.192289
vn -0.150842 0.969676 -0.192289
vn -0.150842 0.969676 -0.192289
vn -0.150842 0.969676 -0.192289
vn 0.247605 0.968107 0.038213
vn 0.247605 0.968107 0.038213
vn 0.247605 0.968107 0.038213
vn 0.247605 0.968107 0.038213
vn -0.203651 0.935940 0.287303
vn -0.203651 0.935940 0.287303
vn -0.203651 0.935940 0.287303
vn -0.203651 0.935940 0.287304
vn -0.052191 0.983709 0.172027
vn -0.052191 0.983709 0.172027
vn -0.052191 0.983709 0.172027
vn -0.052191 0.983709 0.172027
vn 0.128229 0.987863 -0.087665
vn 0.128229 0.987862 -0.087665
vn 0.128229 0.987862 -0.087665
vn 0.128229 0.987863 -0.087665
vn -0.190489 0.974470 -0.118838
vn -0.190489 0.974470 -0.118838
vn -0.190489 0.974470 -0.118838
vn -0.190489 0.974470 -0.118838
vn -0.078967 0.988335 0.130223
vn -0.078967 0.988335 0.130223
vn -0.078967 0.988335 0.130223
vn -0.078967 0.988335 0.130223
vn 0.158093 0.986250 0.048145
vn 0.158093 0.986250 0.048145
vn 0.158093 0.986250 0.048145
vn 0.158093 0.986250 0.048145
vn -0.093924 0.971032 -0.219714
vn -0.093924 0.971033 -0.219714
vn -0.093924 0.971033 -0.219714
vn -0.093924 0.971033 -0.219714
s 1
g polySurface6
usemtl initialShadingGroup
f 1/1/1 2/2/2 3/3/3 4/4/4
s off
f 7/5/5 5/6/6 1/7/7 6/8/8
f 6/9/9 1/10/10 4/11/11 8/12/12
s 2
f 10/13/13 8/15/14 4/16/15
s 3
f 3/17/16 11/18/17 10/19/18 4/20/19
s 2
f 10/13/13 9/14/20 8/15/14
s 3
f 10/21/18 11/22/17 9/23/21
s 1
f 2/24/2 1/25/1 5/26/22
s 4
f 20/34/23 19/35/24 26/36/25
s off
f 24/38/26 21/39/27 22/40/28 23/41/29
s 5
f 23/42/30 22/47/31 19/37/32 20/51/33
s off
f 25/43/34 22/44/35 21/45/36 17/46/37
f 24/48/38 23/49/39 20/50/40
s 4
f 26/36/25 19/35/24 14/52/41 13/53/42
s 5
f 17/54/43 18/32/44 25/31/45
f 16/55/46 15/56/47 18/57/48
s off
f 29/58/49 27/59/50 28/60/51
f 28/61/52 27/62/53 30/63/54 31/64/55
s 8
f 29/71/56 28/66/57 34/69/58 35/70/59
s off
f 35/72/60 34/73/61 33/74/62 36/75/63
s 9
f 39/78/64 29/76/65 35/77/66
f 29/79/65 41/80/67 27/81/68
f 38/82/69 39/78/64 36/83/70
f 39/78/64 35/77/66 36/83/70
f 27/81/68 41/80/67 40/85/71
s 11
f 42/88/72 48/89/73 52/92/74 47/106/75
s off
f 44/90/76 45/91/77 48/100/78 42/101/79
f 46/94/80 48/95/81 49/109/82
f 48/102/83 45/96/84 49/97/85
f 44/107/86 42/98/87 50/99/88
f 42/103/89 51/104/90 50/105/91
s 11
f 46/108/92 52/92/74 48/93/73
s 5
f 19/37/32 15/29/47 14/33/93
f 19/37/32 22/47/31 25/31/45
f 14/33/93 15/29/47 16/30/46 12/27/94 13/28/95
f 19/37/32 25/31/45 18/32/44 15/29/47
s 9
f 41/80/67 39/78/64 38/82/69 37/84/96 40/85/71
f 41/80/67 29/76/65 39/78/64
s 8
f 34/69/58 28/66/57 31/65/97 32/67/98 33/68/99
s 11
f 42/88/72 47/106/75 43/86/100 51/87/101
s off
f 56/110/102 53/111/103 54/112/104 55/113/105
f 56/114/106 55/115/107 57/116/108 58/117/109
f 59/118/110 57/119/111 55/120/112 54/121/113
f 63/122/114 60/123/115 61/124/116 62/125/117
f 65/126/118 64/127/119 61/128/120 60/129/121
f 64/130/122 66/131/123 62/132/124 61/133/125
f 70/134/126 67/135/127 68/136/128 69/137/129
f 72/138/130 68/139/131 67/140/132 71/141/133
f 72/142/134 73/143/135 69/144/136 68/145/137
