# This file uses centimeters as units for non-parametric coordinates.

mtllib smallBuilding.mtl
g default
v -5.920522 0.000000 2.911205
v -5.352596 0.000000 3.479131
v 5.920522 0.000000 2.911205
v 5.352596 0.000000 3.479131
v -5.920522 0.000000 -2.911205
v -5.352596 0.000000 -3.479131
v 5.920522 0.000000 -2.911205
v 5.352596 0.000000 -3.479131
v -4.681664 2.895233 2.233335
v -4.148179 2.895233 2.751130
v 4.148179 2.895233 2.751130
v 4.681664 2.895233 2.233335
v 4.681664 2.895233 -2.233335
v 4.148179 2.895233 -2.751130
v -4.148179 2.895233 -2.751130
v -4.681664 2.895233 -2.233335
v -4.470236 4.072759 2.092277
v -3.919428 4.072759 2.626886
v 3.919428 4.072759 2.626886
v 4.470236 4.072759 2.092277
v 4.470236 4.072759 -2.092277
v 3.919428 4.072759 -2.626886
v -3.919428 4.072759 -2.626886
v -4.470236 4.072759 -2.092277
v -1.890347 7.515950 0.581703
v -1.214823 7.515950 1.163290
v 1.890347 7.515950 0.581703
v 1.214823 7.515950 1.163290
v 1.214823 7.515950 -1.163290
v 1.890347 7.515950 -0.581703
v -1.890347 7.515950 -0.581703
v -1.214823 7.515950 -1.163290
v -5.401920 2.080107 2.651049
v -4.878608 2.072452 3.174380
v 4.878608 2.072452 3.174380
v 5.401920 2.080107 2.651049
v -4.878608 2.072452 -3.174380
v -5.401920 2.080107 -2.651049
v 5.401920 2.080107 -2.651049
v 4.878608 2.072452 -3.174380
v 1.784199 0.000000 3.479131
v 1.626203 2.072452 3.174380
v 1.187091 3.224207 2.751130
v 1.012291 4.072759 2.626886
v 0.404941 7.515950 1.163290
v -1.784199 0.000000 3.479131
v -1.626203 2.072452 3.174380
v -1.187091 3.224207 2.751130
v -1.012292 4.072759 2.626886
v -0.404941 7.515950 1.163290
v -1.626203 2.071684 2.018780
v 1.626203 2.071684 2.018780
v -1.784199 -0.004324 2.298276
v 1.784199 -0.004324 2.298277
v -1.187091 2.899558 1.605578
v 1.187091 2.899558 1.605578
v 1.774033 0.133342 3.459523
v 1.774033 0.129247 2.280294
v -1.774033 0.129247 2.280293
v -1.774033 0.133342 3.459523
v -5.322099 0.133342 3.459523
v -5.887155 0.133835 2.894467
v -5.887155 0.133835 -2.894467
v -5.322099 0.133342 -3.459523
v 5.322099 0.133342 -3.459523
v 5.887155 0.133835 -2.894467
v 5.887155 0.133835 2.894467
v 5.322099 0.133342 3.459523
v 1.774033 0.131294 2.869909
v 1.784199 -0.002162 2.888704
v 5.352596 0.000000 0.000000
v 5.920522 0.000000 0.000000
v 5.887155 0.133835 0.000000
v 5.401920 2.080107 0.000000
v 4.681664 2.895233 0.000000
v 4.470236 4.072759 0.000000
v 1.890347 7.515950 0.000000
v -1.890347 7.515950 0.000000
v -4.470236 4.072759 0.000000
v -4.681664 2.895233 0.000000
v -5.401920 2.080107 0.000000
v -5.887155 0.133835 0.000000
v -5.920522 0.000000 0.000000
v -5.352596 0.000000 0.000000
v -1.784199 -0.002162 2.888704
v -1.774033 0.131294 2.869908
v -1.626203 2.072068 2.596580
v -1.187091 3.056497 2.178354
v 1.187091 3.056497 2.178354
v 1.626203 2.072068 2.596580
v -2.500000 0.000000 5.000000
v -2.400000 2.200000 4.826795
v -2.600000 2.200000 4.826795
v -2.700000 2.200000 5.000000
v -2.600000 2.200000 5.173205
v -2.400000 2.200000 5.173205
v -2.300000 2.200000 5.000000
v -2.500000 2.200000 5.000000
v 2.500000 0.000000 5.000000
v 2.600000 2.200000 4.826795
v 2.400000 2.200000 4.826795
v 2.300000 2.200000 5.000000
v 2.400000 2.200000 5.173205
v 2.600000 2.200000 5.173205
v 2.700000 2.200000 5.000000
v 2.500000 2.200000 5.000000
vt 0.625000 0.770405
vt 0.375000 0.312494
vt 0.580331 0.250000
vt 0.625000 0.437506
vt 0.419669 0.500000
vt 0.609598 0.250000
vt 0.625000 0.474561
vt 0.390402 0.500000
vt 0.375000 0.275439
vt 0.390402 0.250000
vt 0.419669 0.250000
vt 0.625000 0.275439
vt 0.625000 0.312494
vt 0.609598 0.500000
vt 0.580331 0.500000
vt 0.375000 0.474561
vt 0.375000 0.437506
vt 0.854392 0.223970
vt 0.375000 0.528154
vt 0.625000 0.480123
vt 0.625000 0.500000
vt 0.386991 0.000000
vt 0.354392 0.223970
vt 0.375000 0.273526
vt 0.645405 0.000000
vt 0.612891 0.223146
vt 0.610756 0.250000
vt 0.389244 0.500000
vt 0.387109 0.526854
vt 0.375000 0.770405
vt 0.625000 0.476474
vt 0.625000 0.528154
vt 0.613009 0.750000
vt 0.387109 0.223146
vt 0.613009 0.000000
vt 0.612891 0.526854
vt 0.386991 0.750000
vt 0.645608 0.223970
vt 0.854595 0.000000
vt 0.145608 0.223970
vt 0.145405 0.000000
vt 0.354595 0.000000
vt 0.389244 0.250000
vt 0.625000 0.273526
vt 0.610756 0.500000
vt 0.375000 0.476474
vt 0.537670 0.000000
vt 0.537630 0.223146
vt 0.536919 0.250000
vt 0.536533 0.250000
vt 0.526777 0.250000
vt 0.462330 0.000000
vt 0.462370 0.223146
vt 0.463082 0.250000
vt 0.463467 0.250000
vt 0.473223 0.250000
vt 0.462370 0.223146
vt 0.462330 0.000000
vt 0.537670 0.000000
vt 0.537630 0.223146
vt 0.463082 0.250000
vt 0.536919 0.250000
vt 0.537667 0.014357
vt 0.537667 0.014357
vt 0.462333 0.014357
vt 0.462333 0.014357
vt 0.386998 0.014357
vt 0.354582 0.014410
vt 0.375000 0.754818
vt 0.145418 0.014410
vt 0.386998 0.735643
vt 0.613002 0.735643
vt 0.625000 0.754818
vt 0.854582 0.014410
vt 0.645418 0.014410
vt 0.613002 0.014357
vt 0.537667 0.014357
vt 0.537670 0.000000
vt 0.613009 0.375000
vt 0.750000 0.000000
vt 0.750000 0.014410
vt 0.750000 0.223970
vt 0.625000 0.375000
vt 0.625000 0.375000
vt 0.625000 0.375000
vt 0.375000 0.375000
vt 0.375000 0.375000
vt 0.375000 0.375000
vt 0.250000 0.223970
vt 0.250000 0.014410
vt 0.250000 0.000000
vt 0.364798 0.385202
vt 0.386991 0.375000
vt 0.462330 0.000000
vt 0.462333 0.014357
vt 0.462370 0.223146
vt 0.463082 0.250000
vt 0.536919 0.250000
vt 0.537630 0.223146
vt 0.500000 0.312500
vt 0.416667 0.688440
vt 0.375000 0.688440
vt 0.458333 0.688440
vt 0.500000 0.688440
vt 0.541667 0.688440
vt 0.583333 0.688440
vt 0.625000 0.688440
vt 0.578125 0.979066
vt 0.421875 0.979066
vt 0.500000 0.837500
vt 0.343750 0.843750
vt 0.421875 0.708434
vt 0.578125 0.708434
vt 0.656250 0.843750
vt 0.500000 0.312500
vt 0.416667 0.688440
vt 0.375000 0.688440
vt 0.458333 0.688440
vt 0.500000 0.688440
vt 0.541667 0.688440
vt 0.583333 0.688440
vt 0.625000 0.688440
vt 0.578125 0.979066
vt 0.421875 0.979066
vt 0.500000 0.837500
vt 0.343750 0.843750
vt 0.421875 0.708434
vt 0.578125 0.708434
vt 0.656250 0.843750
vn 0.000000 1.000000 0.000000
vn 0.000000 1.000000 0.000000
vn 0.000000 1.000000 0.000000
vn 0.000000 1.000000 0.000000
vn 0.000000 1.000000 0.000000
vn 0.000000 1.000000 0.000000
vn 0.000000 1.000000 -0.000000
vn 0.000000 1.000000 -0.000000
vn -0.851781 0.498715 0.160478
vn -0.625015 0.442844 0.642841
vn -0.554164 0.576257 0.600691
vn -0.564337 0.556773 0.609530
vn 0.625015 0.442845 0.642841
vn 0.851781 0.498715 0.160478
vn 0.564337 0.556773 0.609530
vn 0.554164 0.576257 0.600692
vn 0.851781 0.498715 -0.160478
vn 0.625015 0.442844 -0.642841
vn 0.554164 0.576257 -0.600691
vn 0.564337 0.556773 -0.609530
vn -0.625015 0.442845 -0.642841
vn -0.851781 0.498715 -0.160478
vn -0.564337 0.556773 -0.609530
vn -0.554164 0.576257 -0.600692
vn -0.516441 0.641363 0.567399
vn -0.516441 0.641363 0.567399
vn 0.516441 0.641363 0.567399
vn 0.516441 0.641363 0.567399
vn 0.516441 0.641363 -0.567399
vn 0.516441 0.641363 -0.567399
vn -0.516441 0.641363 -0.567399
vn -0.516441 0.641363 -0.567399
vn -0.003084 0.275150 0.961396
vn -0.016772 0.314351 0.949159
vn -0.009969 0.216829 0.976159
vn -0.001048 0.322519 0.946562
vn 0.898543 0.438886 0.000000
vn 0.877564 0.479459 0.000000
vn 0.893085 0.449888 0.000000
vn 0.000000 0.316938 -0.948446
vn 0.000000 0.316938 -0.948446
vn 0.000000 0.256285 -0.966601
vn 0.000000 0.256285 -0.966601
vn -0.898543 0.438886 0.000000
vn -0.893085 0.449887 0.000000
vn -0.877564 0.479459 0.000000
vn 0.000000 0.391195 0.920308
vn 0.000000 0.391195 0.920308
vn 0.800279 0.599627 0.000000
vn 0.800279 0.599627 0.000000
vn 0.000000 0.391195 -0.920308
vn 0.000000 0.391195 -0.920308
vn -0.800279 0.599627 0.000000
vn -0.800279 0.599627 0.000000
vn -0.921902 0.387424 0.000000
vn -0.909467 0.386112 0.154229
vn -0.630732 0.443178 0.637001
vn -0.004246 0.197698 0.980254
vn -0.008306 0.247231 0.968921
vn 0.630732 0.443178 0.637001
vn 0.909467 0.386112 0.154229
vn 0.921902 0.387424 0.000000
vn 0.000000 0.201233 -0.979543
vn 0.000000 0.201233 -0.979543
vn -0.630732 0.443178 -0.637001
vn -0.909467 0.386112 -0.154229
vn 0.909467 0.386112 -0.154229
vn 0.630732 0.443178 -0.637001
vn -0.683424 0.256345 0.683534
vn -0.683423 0.256345 0.683535
vn -0.682597 0.256265 0.684390
vn -0.682607 0.256266 0.684380
vn 0.683423 0.256346 0.683534
vn 0.683423 0.256346 0.683534
vn 0.682607 0.256266 0.684380
vn 0.682597 0.256265 0.684390
vn -0.682607 0.256266 -0.684380
vn -0.682597 0.256265 -0.684390
vn -0.683424 0.256345 -0.683535
vn -0.683424 0.256345 -0.683534
vn 0.682597 0.256265 -0.684390
vn 0.682607 0.256266 -0.684380
vn 0.683423 0.256346 -0.683534
vn 0.683423 0.256346 -0.683534
vn 0.000000 0.145484 0.989361
vn 0.000000 0.145484 0.989361
vn 0.000000 0.145484 0.989361
vn 0.000000 0.145484 0.989361
vn 0.000000 0.145484 -0.989361
vn 0.000000 0.145484 -0.989361
vn 0.000000 0.145484 -0.989361
vn 0.000000 0.145484 -0.989361
vn 0.970299 0.241910 0.000000
vn 0.970298 0.241914 0.000000
vn 0.970298 0.241914 0.000000
vn 0.970299 0.241910 0.000000
vn -0.970299 0.241910 0.000000
vn -0.970298 0.241914 0.000000
vn -0.970298 0.241914 0.000000
vn -0.970299 0.241910 0.000000
vn 0.000000 0.145484 0.989361
vn 0.000000 0.145484 0.989361
vn 0.000000 0.145484 0.989361
vn 0.000000 0.145484 0.989361
vn 0.009969 0.216829 0.976159
vn 0.008306 0.247231 0.968921
vn 0.004246 0.197698 0.980254
vn 0.016772 0.314351 0.949159
vn 0.001048 0.322519 0.946563
vn 0.003084 0.275150 0.961396
vn 0.000000 0.391195 0.920308
vn 0.000000 0.391195 0.920308
vn 0.000000 0.446578 0.894745
vn 0.000000 0.201341 0.979521
vn 0.000000 0.201341 0.979521
vn 0.000000 0.446578 0.894745
vn 0.997111 -0.075959 0.000167
vn 0.997112 -0.075943 0.000271
vn 0.997112 -0.075943 0.000271
vn 0.997113 -0.075932 0.000162
vn -0.997112 -0.075943 0.000271
vn -0.997111 -0.075959 0.000167
vn -0.997113 -0.075932 0.000162
vn -0.997112 -0.075943 0.000271
vn 0.930747 -0.361824 0.052861
vn 0.986073 -0.165490 0.016531
vn 0.981483 -0.190466 0.020334
vn 0.919886 -0.388341 0.054783
vn -0.986073 -0.165490 0.016531
vn -0.930746 -0.361824 0.052861
vn -0.919886 -0.388341 0.054784
vn -0.981483 -0.190466 0.020334
vn 0.000000 -0.959706 0.281005
vn 0.000000 -0.959706 0.281005
vn 0.000000 -0.962110 0.272662
vn 0.000000 -0.962110 0.272662
vn -0.000460 -1.000000 0.000472
vn -0.001008 -0.999999 0.000425
vn -0.000709 -0.999999 0.000928
vn -0.000518 -1.000000 0.000531
vn 0.000000 -1.000000 0.000000
vn 0.000000 -1.000000 0.000000
vn 0.000709 -0.999999 0.000928
vn 0.001008 -0.999999 0.000425
vn 0.000460 -1.000000 0.000472
vn 0.000518 -1.000000 0.000531
vn -0.000266 -1.000000 -0.000396
vn -0.000132 -1.000000 -0.000618
vn 0.000132 -1.000000 -0.000618
vn 0.000266 -1.000000 -0.000396
vn 0.000000 -1.000000 0.000000
vn 0.000000 -1.000000 0.000000
vn 0.000000 0.133428 0.991059
vn 0.000000 0.133428 0.991059
vn 0.000000 -1.000000 0.000000
vn 0.970298 0.241914 0.000000
vn 0.970299 0.241910 0.000000
vn 0.893085 0.449887 0.000000
vn 0.800279 0.599627 0.000000
vn 0.000000 1.000000 -0.000000
vn 0.000000 1.000000 -0.000000
vn 0.000000 1.000000 -0.000000
vn 0.000000 1.000000 -0.000000
vn -0.893085 0.449888 0.000000
vn -0.800279 0.599627 0.000000
vn -0.970299 0.241910 0.000000
vn -0.970298 0.241914 0.000000
vn 0.000000 -1.000000 0.000000
vn 0.997116 -0.075897 0.000158
vn 0.974439 -0.223305 0.024570
vn 0.908411 -0.414223 0.056639
vn 0.000000 -0.964452 0.264257
vn 0.000000 -0.964452 0.264257
vn -0.908411 -0.414224 0.056639
vn -0.974439 -0.223305 0.024570
vn -0.997116 -0.075897 0.000158
vn 0.000000 0.999994 -0.003473
vn 0.000000 0.999994 -0.003473
vn 0.000000 0.999994 -0.003473
vn 0.000000 0.999994 -0.003473
vn -0.000000 0.139459 0.990228
vn -0.000000 0.139459 0.990228
vn -0.000000 0.139459 0.990228
vn -0.000000 0.139459 0.990228
vn 0.000000 -0.078487 -0.996915
vn 0.000000 -0.078487 -0.996915
vn 0.000000 -0.078487 -0.996915
vn -0.863353 -0.078487 -0.498459
vn -0.863353 -0.078487 -0.498459
vn -0.863353 -0.078487 -0.498459
vn -0.863353 -0.078487 0.498459
vn -0.863353 -0.078487 0.498459
vn -0.863353 -0.078487 0.498459
vn 0.000000 -0.078487 0.996915
vn 0.000000 -0.078487 0.996915
vn 0.000000 -0.078487 0.996915
vn 0.863353 -0.078487 0.498459
vn 0.863353 -0.078487 0.498459
vn 0.863353 -0.078487 0.498459
vn 0.863354 -0.078487 -0.498458
vn 0.863353 -0.078487 -0.498458
vn 0.863354 -0.078487 -0.498458
vn 0.000000 1.000000 0.000000
vn 0.000000 1.000000 0.000000
vn 0.000000 1.000000 0.000000
vn 0.000000 1.000000 0.000000
vn 0.000000 1.000000 0.000000
vn 0.000000 1.000000 0.000000
vn 0.000000 1.000000 0.000000
vn 0.000000 -0.078487 -0.996915
vn 0.000000 -0.078487 -0.996915
vn 0.000000 -0.078487 -0.996915
vn -0.863353 -0.078487 -0.498459
vn -0.863353 -0.078487 -0.498459
vn -0.863353 -0.078487 -0.498459
vn -0.863353 -0.078487 0.498459
vn -0.863353 -0.078487 0.498459
vn -0.863353 -0.078487 0.498459
vn 0.000000 -0.078487 0.996915
vn 0.000000 -0.078487 0.996915
vn 0.000000 -0.078487 0.996915
vn 0.863353 -0.078487 0.498459
vn 0.863353 -0.078487 0.498459
vn 0.863353 -0.078487 0.498459
vn 0.863354 -0.078487 -0.498458
vn 0.863353 -0.078487 -0.498458
vn 0.863354 -0.078487 -0.498458
vn 0.000000 1.000000 0.000000
vn 0.000000 1.000000 0.000000
vn 0.000000 1.000000 0.000000
vn 0.000000 1.000000 0.000000
vn 0.000000 1.000000 0.000000
vn 0.000000 1.000000 0.000000
vn 0.000000 1.000000 0.000000
s 1
g smallBuilding
usemtl initialShadingGroup
f 25/2/1 26/11/2 50/56/3 45/51/4 28/3/5 27/13/6 77/85/7 78/86/8
s 2
f 9/24/9 10/43/10 18/10/11 17/9/12
s 3
f 11/27/13 12/44/14 20/12/15 19/6/16
f 13/31/17 14/45/18 22/14/19 21/7/20
s 2
f 15/28/21 16/46/22 24/16/23 23/8/24
f 17/9/12 18/10/11 26/11/25 25/2/26
s 3
f 19/6/16 20/12/15 27/13/27 28/3/28
f 21/7/20 22/14/19 29/15/29 30/4/30
s 2
f 23/8/24 24/16/23 31/17/31 32/5/32
s 6
f 18/10/33 10/43/34 48/54/35 49/55/36
s 3
f 12/44/14 75/83/37 76/84/38 20/12/39
s 8
f 14/45/40 15/28/41 23/8/42 22/14/43
s 2
f 80/88/44 9/24/9 17/9/45 79/87/46
s 6
f 50/56/47 26/11/48 18/10/33 49/55/36
s 3
f 20/12/39 76/84/38 77/85/49 27/13/50
s 8
f 22/14/43 23/8/42 32/5/51 29/15/52
s 2
f 79/87/46 17/9/45 25/2/53 78/86/54
f 81/89/55 33/23/56 9/24/9 80/88/44
f 33/23/56 34/34/57 10/43/10 9/24/9
s 6
f 10/43/34 34/34/58 47/53/59 48/54/35
s 3
f 35/26/60 36/38/61 12/44/14 11/27/13
f 36/38/61 74/82/62 75/83/37 12/44/14
s 8
f 40/36/63 37/29/64 15/28/41 14/45/40
s 2
f 37/29/65 38/19/66 16/46/22 15/28/21
s 3
f 39/20/67 40/21/68 14/45/18 13/31/17
s 2
f 1/42/69 2/22/70 61/67/71 62/68/72
s 3
f 4/35/73 3/25/74 67/75/75 68/76/76
s 2
f 63/69/77 64/71/78 6/37/79 5/30/80
s 3
f 65/72/81 66/73/82 7/1/83 8/33/84
s 6
f 61/67/85 2/22/86 46/52/87 60/66/88
s 8
f 64/71/89 65/72/90 8/33/91 6/37/92
s 3
f 67/75/93 3/25/94 72/80/95 73/81/96
s 2
f 82/90/97 83/91/98 1/42/99 62/68/100
s 6
f 68/76/101 57/63/102 41/47/103 4/35/104
f 43/49/105 42/48/106 35/26/107 11/27/108
f 44/50/109 43/49/105 11/27/108 19/6/110
f 28/3/111 45/51/112 44/50/109 19/6/110
s 13
f 55/61/113 51/57/114 52/60/115 56/62/116
s 6
f 49/55/36 48/54/35 43/49/105 44/50/109
f 45/51/112 50/56/47 49/55/36 44/50/109
s 14
f 60/66/117 46/52/118 85/94/119 86/95/120
s 15
f 41/47/121 57/63/122 69/77/123 70/78/124
s 14
f 48/54/125 47/53/126 87/96/127 88/97/128
s 15
f 42/48/129 43/49/130 89/98/131 90/99/132
s 17
f 43/49/133 48/54/134 88/97/135 89/98/136
s 18
f 2/22/137 84/93/138 85/94/139 46/52/140
f 1/42/141 83/92/142 84/93/138 2/22/137
f 70/78/143 71/79/144 4/35/145 41/47/146
f 53/58/147 6/37/148 8/33/149 54/59/150
f 4/35/145 71/79/144 72/80/151 3/25/152
s 15
f 57/63/122 42/48/129 90/99/132 69/77/123
s 13
f 52/60/115 51/57/114 59/65/153 58/64/154
s 14
f 47/53/126 60/66/117 86/95/120 87/96/127
s 6
f 34/34/58 61/67/85 60/66/88 47/53/59
s 2
f 62/68/72 61/67/71 34/34/57 33/23/56
f 81/89/55 82/90/97 62/68/100 33/23/56
f 38/19/66 37/29/65 64/71/78 63/69/77
s 8
f 37/29/64 40/36/63 65/72/90 64/71/89
s 3
f 40/36/68 39/32/67 66/73/82 65/72/81
f 36/38/61 67/75/93 73/81/96 74/82/62
f 68/76/76 67/75/75 36/38/61 35/26/60
s 6
f 35/26/107 42/48/106 57/63/102 68/76/101
s 18
f 54/59/150 8/33/149 71/79/144 70/78/143
f 72/80/151 71/79/144 8/33/149 7/39/155
s 3
f 73/81/96 72/80/95 7/39/156 66/74/157
f 74/82/62 73/81/96 66/74/157 39/18/67
f 75/83/37 74/82/62 39/18/67 13/31/17
f 76/84/38 75/83/37 13/31/17 21/7/158
f 77/85/49 76/84/38 21/7/158 30/4/159
s 1
f 78/86/8 77/85/7 30/4/160 29/15/161 32/5/162 31/17/163
s 2
f 24/16/164 79/87/46 78/86/54 31/17/165
f 16/46/22 80/88/44 79/87/46 24/16/164
f 38/40/66 81/89/55 80/88/44 16/46/22
f 38/40/66 63/70/166 82/90/97 81/89/55
f 63/70/166 5/41/167 83/91/98 82/90/97
s 18
f 84/93/138 83/92/142 5/30/168 6/37/148
f 85/94/139 84/93/138 6/37/148 53/58/147
s 14
f 87/96/127 86/95/120 59/65/169 51/57/170
f 88/97/128 87/96/127 51/57/170 55/61/171
s 17
f 89/98/136 88/97/135 55/61/172 56/62/173
s 15
f 90/99/132 89/98/131 56/62/174 52/60/175
f 69/77/123 90/99/132 52/60/175 58/64/176
s off
f 59/65/177 86/95/178 69/77/179 58/64/180
f 86/95/181 85/94/182 70/78/183 69/77/184
s 18
f 85/94/139 53/58/147 54/59/150 70/78/143
s off
f 91/100/185 93/101/186 92/102/187
f 91/100/188 94/103/189 93/101/190
f 91/100/191 95/104/192 94/103/193
f 91/100/194 96/105/195 95/104/196
f 91/100/197 97/106/198 96/105/199
f 91/100/200 92/107/201 97/106/202
s 20
f 92/108/203 93/109/204 98/110/205
f 93/109/204 94/111/206 98/110/205
f 94/111/206 95/112/207 98/110/205
f 95/112/207 96/113/208 98/110/205
f 96/113/208 97/114/209 98/110/205
f 97/114/209 92/108/203 98/110/205
s off
f 99/115/210 101/116/211 100/117/212
f 99/115/213 102/118/214 101/116/215
f 99/115/216 103/119/217 102/118/218
f 99/115/219 104/120/220 103/119/221
f 99/115/222 105/121/223 104/120/224
f 99/115/225 100/122/226 105/121/227
s 21
f 100/123/228 101/124/229 106/125/230
f 101/124/229 102/126/231 106/125/230
f 102/126/231 103/127/232 106/125/230
f 103/127/232 104/128/233 106/125/230
f 104/128/233 105/129/234 106/125/230
f 105/129/234 100/123/228 106/125/230
